<svg xmlns="http://www.w3.org/2000/svg" width="1604" height="270"><path stroke="#000" d="M36.5 33h1533l1.5 1.5v169l-1.5 1.5-244.5-.5 245-.5V34.5l-.5-.5H36v170h244.5v1h-244l-1.5-1.5v-169z" opacity=".62"/><path stroke="#000" d="M40 38h1525.5l.5.5V200l-241-.5 240-.5V39.5l-.5-.5H41v160h239.5v1H40z" opacity=".62"/><path stroke="#000" d="m834.5 79 6.5.5-6.5.5zM87.5 80h9l1.5 1.5.5 25.5 1.5-.5-3 1.5V81H87v54.5l.5.5H97v-23.5l1.5-.5 3 4-3.5-2.5v22l-1.5 1.5h-9l-1.5-1.5v-54zM120.5 80l11.5.5-11.5.5zM202.5 80l1 2zM277.5 80l1 2-1.5-.5v54l.5.5h9.5v-31.5l1.5-.5 1 2-1.5-.5v30l-1.5 1.5h-9l-1.5-1.5v-54zM315.5 80h9l1.5 1.5v54l-1.5 1.5.5-1.5v-54l-.5-.5H315v32.5l-1.5.5-3-4 3.5 2.5v-31zM387.5 80l2.5.5-2.5.5zM487.5 80l1 2-2.5-.5zM569.5 80l2.5.5-2.5.5zM713.5 80l9.5.5-10 .5v54.5l.5.5h9v1h-10l-.5-.5v-55zM751.5 80l9.5.5-10 .5-.5 24-.5-23.5zM970.5 80l-3 4zM1022.5 80h39l1.5 1.5-.5 8.5-.5-9h-40v55h39.5l.5-.5v-8h1v8l-1.5 1.5H1021V81.5zM1123.5 80l2.5.5-2.5.5zM1195.5 80h41l1.5 1.5-.5 8.5-.5-9h-41.5l-.5.5v8h-1v-8zM1283.5 80l40.5.5-40.5.5zM1395.5 80l1 2-2.5-.5zM1470.5 80l24.5.5-25 .5v55h25.5v1H1469V81.5zM914.5 81l.5 55 10 .5-11 .5zM1498.5 81l2.5.5-2.5.5zM131.5 82l-2 3zM408.5 82l2.5 1.5-1.5-.5zM590.5 82l2.5 1.5-1.5-.5zM916.5 82l2 3zM117.5 83l-2 3zM380.5 83l-1 2zM562.5 83l-1 2zM1116.5 83l-1 2zM1504.5 83l2.5 1.5-1.5-.5zM596.5 85l1 2zM855.5 85l5 6zM1508.5 85l1 2zM377.5 86l-1 2zM559.5 86l-1 2zM127.5 87l-2 3zM964.5 87l-3 4zM113.5 88l-1 2zM286.5 88l5 6zM414.5 89l-1 2zM596.5 89l-1 2zM835.5 89l4.5.5-4.5.5zM922.5 89l2 3zM1150.5 89l-1 2zM571.5 90l1.5.5-5.5 3.5 2-3zM1210.5 90l.5 46h9.5l.5-.5v-45h1v45l-1.5 1.5h-9l-1.5-1.5zM1293.5 90l.5 13.5h-1z" opacity=".62"/><path stroke="#000" d="m1480.5 90 16.5.5-16.5.5zM387.5 91l-2 3zM556.5 91l.5 2.5h-1zM814.5 91l-1 2zM1123.5 91l-2 3zM1514.5 91l1 2zM123.5 92l-2 3zM412.5 92l-1 2zM594.5 92l-1 2zM847.5 92l1 2zM1501.5 92l1 2zM109.5 93l-1 2zM407.5 93l1 2zM589.5 93l1 2zM1143.5 93l1 2zM1147.5 93l-1 2zM825.5 94l-1 2zM958.5 94l-3 4zM927.5 95l3 4zM851.5 96l1 2zM1505.5 96l2.5 4.5h-1zM106.5 97l-2 3zM119.5 97l-2 3zM1404.5 97l5.5 9.5-2-1zM297.5 98l6 7zM385.5 98l1 2zM1121.5 98l1 2zM952.5 101l-3 4zM102.5 102l-1 2zM115.5 102l-2 3zM202.5 102l1 2zM487.5 102l1 2-2.5-.5zM557.5 102l1.5 2.5-2-1zM933.5 102l3 4zM1130.5 102l2.5.5-2.5.5zM1395.5 102l1 2-2.5-.5zM375.5 103l1 2zM398.5 103l2.5.5-2.5.5zM580.5 103l2.5.5-2.5.5zM866.5 103l.5 4.5h-1zM1134.5 103l2.5.5-2.5.5zM1508.5 103l.5 10.5h-1zM1320.5 104l.5 9.5h-1zM819.5 105l.5 6.5h-1zM1519.5 105l.5 7.5h-1zM111.5 107l-1 2zM594.5 107l4 5zM380.5 108l2.5 1.5-1.5.5zM413.5 108l3 4zM946.5 108l-4 5-3-4 3 3zM1116.5 108l2.5 1.5-1.5.5zM1149.5 108l2 3zM564.5 109l2.5 1.5-1.5.5zM866.5 109l.5 4.5h-1zM110.5 110l4 5zM295.5 110l4 5zM958.5 110l-2 3zM928.5 112l1 2zM1125.5 112l2.5.5-2.5.5zM395.5 113l2.5.5-2.5.5zM577.5 113l2.5.5-2.5.5zM723.5 114H751v22h9.5v1h-9l-1.5-1.5V115h-26.5zM1293.5 114l.5 12.5h-1zM585.5 115l2.5 1.5-1.5-.5zM418.5 116l.5 8.5h-1zM600.5 116l.5 2.5h-1zM953.5 116l-2 3zM1154.5 116l.5 8.5h-1zM932.5 117l2 3zM305.5 119l5 6zM811.5 120l1.5 2.5-2-1zM823.5 120l3 4zM107.5 122l6 7zM121.5 122l7 8zM382.5 122l1 2zM600.5 122l.5 2.5h-1zM948.5 122l-2 3zM1118.5 122l1 2zM1504.5 122l-1 2zM377.5 123l-1 2zM559.5 123l-1 2zM937.5 123l2 3zM1113.5 123l-1 2zM588.5 124l-1 2zM1501.5 124l-1 2-1.5-.5zM861.5 125l-1 2zM375.5 126l-1 2zM557.5 126l-1 2zM393.5 127l2.5.5-2.5.5zM398.5 127l2.5.5-2.5.5zM575.5 127l2.5.5-2.5.5zM580.5 127l3.5.5-3.5.5zM834.5 127l6.5.5-6.5.5zM1129.5 127l2.5.5-2.5.5zM1134.5 127l2.5.5-2.5.5zM816.5 128l2 3zM1512.5 128l-1 2zM316.5 129l5 6zM416.5 129l-1 2zM1152.5 129l-1 2zM375.5 130l1 2zM557.5 130l1 2zM856.5 130l-2 3zM1111.5 130l1 2zM1508.5 131l-1 2zM378.5 132l2.5 1.5-1.5.5zM821.5 132l1 2zM412.5 133l-1 2zM562.5 133l2.5 1.5-1.5.5zM594.5 133l-1 2zM1148.5 133l-1 2zM118.5 134l2 2 14.5.5-14.5.5zM219.5 135l1 1h10l1.5-.5-.5 1.5h-11zM470.5 135l-1 2-11.5-.5 11.5-.5zM504.5 135l1 1 11.5.5-11.5.5zM1378.5 135l-1 2-11.5-.5 11.5-.5zM1412.5 135l1 1 11.5.5-11.5.5zM174.5 136l11.5.5-11.5.5zM960.5 136l10.5.5-10.5.5zM1283.5 136l40.5.5-40.5.5zM391.5 137l11.5.5-11.5.5zM573.5 137l11.5.5-11.5.5zM833.5 137l9.5.5-9.5.5zM1127.5 137l11.5.5-11.5.5zM319.5 179l15.5.5-16 .5v33.5l3 .5.5-12 .5 11.5-3.5 1.5-1.5-1.5v-33zM375.5 179l22.5.5-22.5.5zM429.5 179l3.5.5-3.5.5zM453.5 179l3.5 1.5v33l-1.5 1.5-3.5-1.5V199h-18.5v-1h18l1.5 1.5v14l3 .5v-33.5l-3-.5v15h-19.5v-1H452v-13.5zM500.5 179l3.5.5-4.5 1.5zM547.5 179l18.5.5-18.5.5zM604.5 179q3.8-.7 4.5 1.5v33l-1.5 1.5-3.5-.5 4-.5v-33.5l-3.5-.5zM641.5 179q3.8-.7 4.5 1.5V210h18.5v1h-18l-1.5-1.5v-29l-3.5-.5zM694.5 179q3.8-.7 4.5 1.5v33l-1.5 1.5-3.5-.5 4-.5v-33.5l-3.5-.5zM728.5 179h27l1.5 1.5-1.5 3.5H745v29.5q-.7 2.3-4.5 1.5v-1l3.5-.5V183h11.5l.5-3h-27.5zM793.5 179l3.5.5-4.5 1.5zM834.5 179h26l1.5 1.5-.5 3.5H850v29.5l-3.5 1.5-1.5-1.5V184h-11.5l-.5-3.5zm-.5 1 1 3h10l1 2v29h3v-29l2-2h10v-3zM891.5 179q3.8-.7 4.5 1.5v33l-1.5 1.5-3.5-.5 4-.5v-33.5l-3.5-.5zM939.5 179l6.5.5-6.5.5zM989.5 179q3.8-.7 4.5 1.5l-1.5-.5q-4 .8-3-1ZM1014.5 179q3.8-.7 4.5 1.5v33l-1.5 1.5-2.5-.5 3-.5v-33.5l-3.5-.5zM1099.5 179l6.5.5-6.5.5zM1156.5 179l6.5.5-6.5.5zM1206.5 179l16.5.5-16.5.5zM1263.5 179l15.5.5-15.5.5zM950.5 181l5 6zM1110.5 181l4 5zM1167.5 181l1 2zM1092.5 182l-4 5z" opacity=".62"/><path stroke="#000" d="m323.5 183 10.5.5-11 .5-.5 14-.5-13.5zM379.5 183l18.5.5-18.5.5zM551 183l13 .5-12 .5-.5 11zM728.5 183l11.5.5-11.5.5zM939.5 183l5.5.5-5.5.5zM995.5 183l2 3zM1099.5 183l5.5.5-5.5.5zM1156.5 183l5.5.5-5.5.5zM1211.5 183l10.5.5-11 .5-.5 14-.5-13.5zM1267.5 183l11.5.5-11.5.5zM341.5 184l1 2zM565.5 184l1 2zM1229.5 184l1.5 2.5h-1zM1280.5 184l1 2zM501.5 185l1 2zM794.5 185l1 2zM935.5 185l-2 3zM948.5 185l1 2zM1095.5 185l-3 4zM1108.5 185l2 3zM1171.5 185l1 2zM1146.5 186l-1 2zM567.5 187l.5 4.5-2 1zM1287.5 187l.5 6.5h-1zM343.5 188l.5 5.5h-1zM993.5 188l.5 25.5q-.7 2.3-4.5 1.5v-1l3.5-.5zM999.5 188l2 3zM1168.5 188l1 2zM1231.5 188l.5 5.5h-1zM995.5 190l1 2zM338.5 193l.5 1.5-4 3zM958.5 193l.5 7.5h-1zM1003.5 193l1 2zM1175.5 193l.5 7.5h-1zM1226.5 193l.5 1.5-4 3zM930.5 194l.5 5.5h-1zM1147.5 194l.5 5.5h-1zM395.5 195l.5 2.5-1.5 1.5h-15v-1h15zM999.5 195l2 3zM1085.5 195l.5 2.5h-1zM1286.5 195l.5 1.5-2 1zM341.5 197l-2 3zM569.5 197l3 4zM1229.5 197l-2 3zM551 198l14 .5-13 .5v11h12.5v1H551zM1007.5 198l2 3zM507.5 199l.5 2-13-.5 11.5-.5zM566.5 199l1 2zM800.5 199l.5 2-13-.5 11.5-.5zM337.5 200v3q-3-1.5 0-3ZM1003.5 200l1 2zM1225.5 200v3q-3-1.5 0-3ZM1210.5 202l.5 11.5q-.7 2.3-4.5 1.5v-1l3.5-.5zM573.5 203l.5 3.5h-1zM1011.5 203l1 2zM338.5 204l1 2zM1112.5 204l-1 2zM1007.5 205l2 3zM568.5 206l.5 1.5-3 2zM933.5 206l1 2zM1093.5 206l2 3zM1115.5 206l.5 1.5-2 1zM1145.5 206l1 2zM1222.5 206l1 2zM949.5 207l-1 2zM955.5 207l-4 5zM1109.5 207l-2 3-1.5-.5zM1166.5 207l-2 3-1.5-.5zM1172.5 207l-1 2zM336.5 209l1 2zM1090.5 209l1 2zM1224.5 209l1 2zM1229.5 209l1 2zM379.5 210h18l1.5 1.5-1.5 3.5-22.5-.5 23-.5-.5-3h-18zM940.5 210l4.5.5-4.5.5zM1011.5 210l1 2zM1099.5 210l5.5.5-5.5.5zM1157.5 210l4.5.5-4.5.5zM1111.5 211l-1 2zM1168.5 211l-1 2zM338.5 212q.8 2.7 5 2v-2l1.5 3q-6.4 1.3-6.5-3ZM949.5 212l-1 2-1.5-.5zM1231.5 212q3 1.5 0 3l-3.5-.5 4-1zM490.5 213l-1 2-3.5-.5zM517.5 213l.5 2-5-.5zM810.5 213l.5 2-5-.5zM429.5 214l3.5.5-3.5.5zM547.5 214l16.5.5-16.5.5zM641.5 214l23.5.5-23.5.5zM779.5 214l3.5.5-3.5.5zM939.5 214l5.5.5-5.5.5zM1099.5 214l5.5.5-5.5.5zM1156.5 214l5.5.5-5.5.5zM1263.5 214l3.5.5-3.5.5z" opacity=".62"/><path stroke="#000" d="M36 34h1533.5l.5.5V204h-244.5l-.5-4h241V38H40.5l-.5.5V200h240.5l.5 4H36z"/><path stroke="#000" d="M390.5 80q17-1.5 24.5 6.5l-4 8.5q-6-4.7-16.5-6l-5 1-4.5 3.5-1 3 2.5 3.5 4 2 19 4 7.5 6.5q2.4 5.1 1 14l-4.5 6.5q-8 6.5-25 4l-14.5-7 5.5-9q6.4 7.6 21 7l6.5-3 1-6.5-6.5-4.5-16-3-8.5-5.5-2-3-1-9 4-8.5 7.5-4zM572.5 80q18-1.5 25.5 7.5l-5 7.5q-6-4.7-16.5-6l-5 1-4.5 3.5q-1.2 6.1 1.5 5.5l8 4 15 3 7.5 6.5 2 9-1 5-4.5 6.5q-7.7 6.3-24 4l-15.5-7 5.5-9 10 6 12 1 5.5-3.5 1-6-3.5-3.5-19-4-8.5-5.5-3-7v-4l4-9.5 7.5-4zM831.5 80l16 1q9.4 3.6 14.5 11.5l4 9q-1.5 5.5 1 7l-3 13-6.5 8.5-13 7h-13q-11.6-2.9-17.5-11.5l-5-12v-10q3-12 11.5-18.5zm4.5 9-10 5-7 12v6l4 9q4 5 12 7 8 1 13-3t8-11q2-12-3-16-4-9-17-9ZM1126.5 80q17-1.5 24.5 6.5v2l-5.5 6.5q-5.2-5.3-15-6l-5 1-4.5 3.5-1 3 2.5 3.5 4 2 19 4 7.5 6.5q2.4 5.1 1 14l-4.5 6.5q-8 6.5-25 4l-14.5-7 5.5-9q6.4 7.6 21 7l6.5-3 1-6.5-6.5-4.5-16-3-9.5-6.5q-2.9-3.6-2-11l1-4 3.5-4.5 7-4zM87 81h10v26.5l1.5.5 21-27 12.5.5-19 23-3 6 24 25-13.5.5-22-24-1.5.5V136H87zM202.5 81l2.5 2.5 26 52.5h-10.5l-1.5-1.5-16.5-32.5-16.5 34-12-.5zM277.5 81l36 33h1.5V81.5l.5-.5h9.5v54.5l-1.5.5-28-26-8.5-6v31.5l-.5.5H277zM487.5 81l28.5 54.5-10.5.5-18-34-18 34-10.5-.5zM713 81h10v24h28V81h10v54.5l-.5.5H751v-22h-28v22h-10zM915.5 81l27 32 28-32 .5 55h-11v-26.5l-4 3-13.5 16.5-17-20-.5 27h-9.5l-.5-.5zM1022 81h39.5l.5.5V90h-30v14h27v10h-27v13h29.5l.5.5v8.5h-40zM1195 81h41.5l.5.5V90h-16v45.5l-.5.5h-9.5V90.5l-.5-.5H1195zM1283 81h40.5l.5.5V90h-31v14h27v10h-27v13h30.5l.5.5v8.5h-41zM1395.5 81l28.5 54.5-10.5.5-18-34-18 34-10.5-.5zM1470 81h27.5q10.5 2.5 16.5 9.5l5 11v14q-2.1 10.4-9.5 15.5l-11 5H1470zm10 9v37h18l6-3q4-4 5-10 1-11-2-16-3-6-10-8zM319 180h17.5l4.5 3.5q3.6 2.9 2 11l-4.5 5.5-2.5 1.5 8 12-3.5.5-9-12H322v11.5l-3 .5zm5 3-2 2v13h14q5-2 3-10-3-7-15-5ZM375 180h22.5l.5 3h-19v12h15.5l.5 3h-16v13h18.5l.5 3h-23zM429 180l4 .5V195h20v-14.5l3-.5v33.5l-3 .5v-14.5l-1.5-1.5H433v15.5l-4 .5zM500.5 180q4.4-1.5 3.5 1.5l13 32.5h-4v-1.5l-4.5-8.5h-14l-.5 1.5-4.5 8.5-3.5-.5zm1.5 5-7 16h13l-4-12zM547 180h19.5l3.5 2.5q2.7 2.3 2 8l-2 4.5q-2.7-1.1-2 1.5l5 5v7l-2.5 3.5-4 2H547zm4 3v12h14l3-3-1-6-3-3zm0 15v13h14l4-3-1-7-3-3zM604 180l4 .5V214l-4-.5zM641 180l4 .5v29l1.5 1.5H665l-.5 3H641zM694 180l4 .5V214l-4-.5zM728 180h27.5l.5 3h-12v30.5l-4 .5v-31h-11.5zM793.5 180q4.4-1.5 3.5 1.5l13 32.5h-4v-1.5l-4.5-8.5h-14l-.5 1.5-3 8.5-5-.5zm1.5 5-7 16h13l-4-12zM834 180h26.5l.5 3h-10.5l-1.5 1.5v29l-3 .5v-29.5l-1.5-1.5h-10zM891 180l4 .5V214l-4-.5zM937.5 180q14.8-1.7 18.5 7.5 3.8 4.7 2 15l-7.5 9.5q-4 3.5-13 2l-8.5-6.5-3-8v-6q1.9-7.6 7.5-11.5zm2.5 3-4 2-6 10v5l3 7 8 4q5 1 8-2l5-7q2-9-2-13l-7-6zM989 180q4.7-1 6 2.5l18.5 23.5.5-26 4 .5V214q-3.8 1-5-1.5L993.5 188l-.5 26-4-.5zM1097.5 180h10l7.5 6.5-3.5 2.5-3-4q-2.7-2.8-9-2l-7.5 5.5q-3 4-2 12l5.5 8.5q2.7 2.8 9 2l9-6 1.5 2.5-2.5 3.5q-4.5 4.5-15 3l-8.5-6.5q-4.2-4.8-3-15 2.1-7.9 8.5-11.5zM1154.5 180q12.5-2 16.5 4.5 6 5 4 18l-5.5 8.5q-4.5 4.5-15 3l-7.5-5.5q-4.5-4.5-4-14 1.7-8.3 7.5-12.5zm2.5 3-6 3-4 9v5l4 8 7 3 7-1q6-4 7-12l-2-8-8-7zM1206 180h18.5l4.5 3.5q3.2 3.3 2 11l-4.5 5.5-2.5 1.5 8 12-5 .5q-1.4-7.3-7.5-12h-9.5v12h-4zm6 3-2 2v13h14q5-2 3-10-3-7-15-5ZM1263 180h17.5l5.5 4.5q2.3 3.2 1 10l-3.5 5.5q-5.9 3.7-16.5 2v12h-4zm4 3v15h13l3-3 1-4-2-5-3-3z"/></svg>