<svg width="1604px" height="270px" version="1.1" xmlns="http://www.w3.org/2000/svg" desc="Created with imagetracer.js version 1.2.6" transform="rotate(0) scale(1, 1)"><path fill="#e8c25d" stroke="#e8c25d" stroke-width="1" opacity="0" d="M 0 0 L 1603.5 0 L 1604 0.5 L 1604 270 L 0.5 270 L 0 269.5 L 0 0 Z M 37 33 L 35 35 L 35 204 L 37 205 L 281 205 L 281 200 L 281 199 L 41 199 L 41 40 L 42 39 L 1565 39 L 1565 199 L 1325 199 L 1325 205 L 1326 205 L 1570 205 L 1571 204 L 1571 35 L 1570 33 L 37 33 Z M 835 79 L 830 80 L 816 88 L 809 102 L 809 116 Q 811 124 816 129 Q 822 136 834 138 L 843 138 L 855 133 Q 864 127 867 114 Q 868 98 861 91 Q 854 79 835 79 Z M 88 80 L 86 82 L 86 136 L 88 137 L 97 137 L 98 136 L 99 113 L 118 135 L 121 137 L 135 137 L 132 134 Q 133 131 131 132 L 117 118 Q 118 115 115 116 L 110 110 L 132 83 L 132 80 L 121 80 L 118 81 L 99 107 L 98 82 L 97 80 L 88 80 Z M 203 80 L 174 135 L 175 137 L 186 137 L 203 103 L 219 136 L 221 137 L 232 137 L 206 85 L 203 80 Z M 278 80 L 276 82 L 276 136 L 278 137 L 287 137 L 288 136 L 289 105 L 300 115 Q 302 114 301 117 L 311 125 Q 313 124 312 127 L 325 137 L 326 136 L 326 82 L 325 80 L 316 80 L 314 82 L 314 113 L 287 88 Q 284 89 285 86 L 278 80 Z M 388 80 L 381 83 L 374 92 L 375 104 L 382 110 Q 389 114 400 114 L 407 117 L 408 120 L 407 124 L 403 127 L 398 128 L 389 126 L 381 121 L 378 121 L 374 130 L 380 134 L 392 138 L 403 138 L 412 135 Q 417 132 419 125 Q 420 116 417 112 Q 413 106 406 104 Q 395 104 388 100 Q 384 99 385 95 L 392 90 L 400 90 L 411 95 L 416 86 L 404 80 L 388 80 Z M 488 80 L 458 137 L 470 137 L 488 103 L 506 137 L 517 137 L 488 80 Z M 570 80 L 563 83 L 556 92 L 557 104 L 566 111 L 582 114 L 589 117 L 590 120 L 589 124 L 585 127 L 580 128 L 571 126 L 563 121 L 560 121 L 556 130 Q 562 136 574 138 L 585 138 L 594 135 Q 599 132 601 125 Q 602 116 599 112 L 593 106 L 570 100 Q 566 99 567 95 L 574 90 L 582 90 L 593 95 L 598 87 Q 593 82 586 80 L 570 80 Z M 714 80 L 712 82 L 712 137 L 723 137 L 723 115 L 750 115 L 750 136 L 752 137 L 761 137 L 761 81 L 761 80 L 752 80 L 750 82 L 750 105 L 723 105 L 723 80 L 714 80 Z M 971 80 L 943 112 L 916 81 L 914 82 L 914 137 L 925 137 L 925 111 L 927 110 L 937 124 L 944 129 L 959 110 L 960 110 L 960 137 L 971 137 L 971 80 Z M 1023 80 L 1021 82 L 1021 137 L 1062 137 L 1063 136 L 1063 128 L 1063 127 L 1032 127 L 1032 114 L 1059 114 L 1059 104 L 1032 104 L 1032 90 L 1063 90 L 1063 90 L 1063 82 L 1062 80 L 1023 80 Z M 1124 80 L 1117 83 L 1110 92 L 1111 104 L 1118 110 Q 1125 114 1136 114 L 1143 117 L 1144 120 L 1143 124 L 1139 127 L 1134 128 L 1125 126 L 1117 121 L 1114 121 L 1109 130 Q 1116 136 1128 138 L 1139 138 L 1148 135 Q 1153 132 1155 125 Q 1156 115 1152 111 L 1147 106 L 1124 100 Q 1120 99 1121 95 L 1128 90 L 1136 90 L 1147 95 L 1152 86 L 1140 80 L 1124 80 Z M 1196 80 L 1194 82 L 1194 90 L 1210 90 L 1210 136 L 1212 137 L 1221 137 L 1222 136 L 1222 91 L 1223 90 L 1238 90 L 1238 82 L 1237 80 L 1196 80 Z M 1283 80 L 1283 137 L 1324 137 L 1324 127 L 1294 127 L 1294 114 L 1321 114 L 1321 104 L 1294 104 L 1294 90 L 1324 90 L 1324 81 L 1324 80 L 1283 80 Z M 1396 80 L 1366 137 L 1378 137 L 1396 103 L 1414 137 L 1425 137 L 1396 80 Z M 1471 80 L 1469 82 L 1469 137 L 1496 137 L 1504 135 L 1512 130 L 1518 121 L 1520 113 L 1519 100 L 1516 93 Q 1511 85 1501 81 Q 1496 82 1495 80 L 1471 80 Z M 320 179 L 318 181 L 318 214 L 320 215 L 323 214 L 323 202 L 332 202 L 338 213 Q 340 216 345 215 L 337 202 L 340 200 L 344 194 L 343 186 Q 341 180 335 179 L 320 179 Z M 375 179 L 375 215 L 398 215 L 399 212 L 398 210 L 379 210 L 379 199 L 395 199 L 396 195 L 381 195 L 379 194 L 379 184 L 398 184 L 398 179 L 375 179 Z M 429 179 L 429 215 L 433 215 L 433 199 L 452 199 L 452 214 L 456 215 L 457 214 L 457 181 L 454 179 L 452 181 L 452 194 L 433 194 L 433 180 L 429 179 Z M 501 179 L 486 213 Q 485 217 490 215 L 494 206 L 496 204 L 509 204 L 513 214 L 513 215 L 518 215 L 504 181 Q 505 177 501 179 Z M 547 179 L 547 215 L 564 215 L 570 213 L 574 207 L 573 201 L 568 197 L 572 192 L 571 184 L 566 179 L 547 179 Z M 604 179 L 604 215 L 608 215 L 609 214 L 609 181 Q 608 178 604 179 Z M 641 179 L 641 215 L 665 215 L 665 210 L 646 210 L 646 181 Q 645 178 641 179 Z M 694 179 L 694 215 L 698 215 L 699 214 L 699 181 Q 698 178 694 179 Z M 728 179 L 728 184 L 740 184 L 740 185 L 740 215 Q 744 216 745 214 L 745 184 L 756 184 L 757 181 L 756 179 L 728 179 Z M 794 179 L 779 213 Q 778 217 783 215 L 787 206 L 789 204 L 802 204 L 806 214 L 806 215 L 811 215 L 797 181 Q 798 177 794 179 Z M 835 179 L 833 181 L 834 184 L 845 184 L 845 214 L 847 215 L 850 214 L 850 184 L 862 184 L 862 181 L 861 179 L 835 179 Z M 891 179 L 891 215 L 895 215 L 896 214 L 896 181 Q 895 178 891 179 Z M 940 179 L 935 181 L 926 192 L 926 202 L 931 211 L 940 215 L 949 214 L 952 212 Q 957 208 959 201 Q 960 191 956 187 Q 952 178 940 179 Z M 989 179 L 989 215 L 993 215 L 994 214 L 995 189 L 1011 211 L 1016 215 L 1018 215 L 1019 214 L 1019 181 Q 1018 178 1014 179 L 1014 206 L 994 181 Q 993 178 989 179 Z M 1100 179 L 1093 182 L 1088 187 L 1085 196 Q 1085 205 1090 210 L 1100 215 L 1105 215 L 1111 213 L 1116 206 L 1113 204 L 1111 207 L 1106 210 L 1097 209 Q 1091 206 1090 199 L 1092 190 L 1099 184 Q 1110 182 1112 189 L 1114 188 Q 1116 189 1115 186 Q 1111 178 1100 179 Z M 1157 179 L 1152 181 Q 1145 185 1143 193 L 1143 202 L 1148 211 L 1157 215 L 1162 215 L 1168 213 Q 1174 209 1176 201 Q 1177 191 1173 187 Q 1169 178 1157 179 Z M 1206 179 L 1206 215 Q 1210 216 1211 214 L 1211 202 L 1220 202 L 1229 215 Q 1232 216 1233 214 L 1225 202 L 1228 200 L 1232 194 L 1231 186 Q 1229 180 1223 179 L 1206 179 Z M 1263 179 L 1263 215 L 1267 215 L 1267 202 L 1281 202 L 1283 201 L 1288 194 L 1287 186 Q 1285 180 1279 179 L 1263 179 Z "></path><path fill="#e8c25d" stroke="#e8c25d" stroke-width="1" opacity="0" d="M 833.5 90 Q 846.5 88.5 851 95.5 L 856 105.5 L 856 111.5 Q 854.3 119.8 848.5 124 Q 843.7 128.7 832.5 127 L 823 119.5 Q 818.3 114.7 820 103.5 Q 822.3 96.8 827.5 93 L 833.5 90 Z "></path><path fill="#e8c25d" stroke="#e8c25d" stroke-width="1" opacity="0" d="M 1480 91 L 1498.5 91 L 1505 95.5 L 1508 101.5 L 1508 115.5 Q 1506.8 121.3 1502.5 124 L 1495.5 127 L 1480 127 L 1480 91 Z "></path><path fill="#e8c25d" stroke="#e8c25d" stroke-width="1" opacity="0" d="M 323 184 L 335.5 184 L 338 186.5 L 339 192.5 L 334.5 198 L 323 198 L 323 184 Z "></path><path fill="#e8c25d" stroke="#e8c25d" stroke-width="1" opacity="0" d="M 552 184 L 564.5 184 L 567 186.5 Q 567.6 191.9 566 194 L 563.5 195 L 552 195 L 552 184 Z "></path><path fill="#e8c25d" stroke="#e8c25d" stroke-width="1" opacity="0" d="M 938.5 184 L 946.5 184 L 951 187 Q 954.4 190.7 954 199.5 L 951 207 L 946.5 210 L 938.5 210 L 933 205.5 Q 929.5 201.5 931 192.5 L 936.5 185 L 938.5 184 Z "></path><path fill="#e8c25d" stroke="#e8c25d" stroke-width="1" opacity="0" d="M 1155.5 184 Q 1165.3 182.3 1168 187.5 Q 1172.2 191.3 1171 200.5 L 1168 207 L 1162.5 210 L 1155.5 210 L 1150 205.5 Q 1146.5 201.5 1148 192.5 L 1153.5 185 L 1155.5 184 Z "></path><path fill="#e8c25d" stroke="#e8c25d" stroke-width="1" opacity="0" d="M 1211 184 L 1222.5 184 L 1226 186.5 L 1227 192.5 L 1222.5 198 L 1211 198 L 1211 184 Z "></path><path fill="#e8c25d" stroke="#e8c25d" stroke-width="1" opacity="0" d="M 1267 184 L 1279.5 184 L 1282 186.5 L 1283 193.5 L 1280.5 197 Q 1276.7 199.7 1268.5 198 L 1267 196.5 L 1267 184 Z "></path><path fill="#e8c25d" stroke="#e8c25d" stroke-width="1" opacity="0" d="M 501.5 186 L 507 200 L 496.5 200 L 496 198.5 L 501.5 186 Z "></path><path fill="#e8c25d" stroke="#e8c25d" stroke-width="1" opacity="0" d="M 794.5 186 L 800 200 L 789 199.5 L 794.5 186 Z "></path><path fill="#e8c25d" stroke="#e8c25d" stroke-width="1" opacity="0" d="M 552 199 L 565.5 199 L 568 201.5 L 569 205.5 L 565.5 210 L 552 210 L 552 199 Z "></path><path fill="#e8c25d" stroke="#e8c25d" stroke-width="1" opacity="0.6196078431372549" d="M 36.5 33 L 1569.5 33 L 1571 34.5 L 1571 203.5 L 1569.5 205 L 1325 204.5 L 1570 204 L 1570 34.5 L 1569.5 34 L 36 34 L 36 204 L 280.5 204 L 280.5 205 L 36.5 205 L 35 203.5 L 35 34.5 L 36.5 33 Z "></path><path fill="#e8c25d" stroke="#e8c25d" stroke-width="1" opacity="0.6196078431372549" d="M 40 38 L 1565.5 38 L 1566 38.5 L 1566 200 L 1325 199.5 L 1565 199 L 1565 39.5 L 1564.5 39 L 41 39 L 41 199 L 280.5 199 L 280.5 200 L 40 200 L 40 38 Z "></path><path fill="#e8c25d" stroke="#e8c25d" stroke-width="1" opacity="0.6196078431372549" d="M 834.5 79 L 841 79.5 L 834.5 80 L 834.5 79 Z "></path><path fill="#e8c25d" stroke="#e8c25d" stroke-width="1" opacity="0.6196078431372549" d="M 87.5 80 L 96.5 80 L 98 81.5 L 98.5 107 L 100 106.5 L 97 108 L 97 81 L 87 81 L 87 135.5 L 87.5 136 L 97 136 L 97 112.5 L 98.5 112 L 101.5 116 L 98 113.5 L 98 135.5 L 96.5 137 L 87.5 137 L 86 135.5 L 86 81.5 L 87.5 80 Z "></path><path fill="#e8c25d" stroke="#e8c25d" stroke-width="1" opacity="0.6196078431372549" d="M 120.5 80 L 132 80.5 L 120.5 81 L 120.5 80 Z "></path><path fill="#e8c25d" stroke="#e8c25d" stroke-width="1" opacity="0.6196078431372549" d="M 202.5 80 L 203.5 82 L 202.5 80 Z "></path><path fill="#e8c25d" stroke="#e8c25d" stroke-width="1" opacity="0.6196078431372549" d="M 277.5 80 L 278.5 82 L 277 81.5 L 277 135.5 L 277.5 136 L 287 136 L 287 104.5 L 288.5 104 L 289.5 106 L 288 105.5 L 288 135.5 L 286.5 137 L 277.5 137 L 276 135.5 L 276 81.5 L 277.5 80 Z "></path><path fill="#e8c25d" stroke="#e8c25d" stroke-width="1" opacity="0.6196078431372549" d="M 315.5 80 L 324.5 80 L 326 81.5 L 326 135.5 L 324.5 137 L 325 135.5 L 325 81.5 L 324.5 81 L 315 81 L 315 113.5 L 313.5 114 L 310.5 110 L 314 112.5 L 314 81.5 L 315.5 80 Z "></path><path fill="#e8c25d" stroke="#e8c25d" stroke-width="1" opacity="0.6196078431372549" d="M 387.5 80 L 390 80.5 L 387.5 81 L 387.5 80 Z "></path><path fill="#e8c25d" stroke="#e8c25d" stroke-width="1" opacity="0.6196078431372549" d="M 487.5 80 L 488.5 82 L 486 81.5 L 487.5 80 Z "></path><path fill="#e8c25d" stroke="#e8c25d" stroke-width="1" opacity="0.6196078431372549" d="M 569.5 80 L 572 80.5 L 569.5 81 L 569.5 80 Z "></path><path fill="#e8c25d" stroke="#e8c25d" stroke-width="1" opacity="0.6196078431372549" d="M 713.5 80 L 723 80.5 L 713 81 L 713 135.5 L 713.5 136 L 722.5 136 L 722.5 137 L 712.5 137 L 712 136.5 L 712 81.5 L 713.5 80 Z "></path><path fill="#e8c25d" stroke="#e8c25d" stroke-width="1" opacity="0.6196078431372549" d="M 751.5 80 L 761 80.5 L 751 81 L 750.5 105 L 750 81.5 L 751.5 80 Z "></path><path fill="#e8c25d" stroke="#e8c25d" stroke-width="1" opacity="0.6196078431372549" d="M 970.5 80 L 967.5 84 L 970.5 80 Z "></path><path fill="#e8c25d" stroke="#e8c25d" stroke-width="1" opacity="0.6196078431372549" d="M 1022.5 80 L 1061.5 80 L 1063 81.5 L 1062.5 90 L 1062 81 L 1022 81 L 1022 136 L 1061.5 136 L 1062 135.5 L 1062 127.5 L 1063 127.5 L 1063 135.5 L 1061.5 137 L 1021 137 L 1021 81.5 L 1022.5 80 Z "></path><path fill="#e8c25d" stroke="#e8c25d" stroke-width="1" opacity="0.6196078431372549" d="M 1123.5 80 L 1126 80.5 L 1123.5 81 L 1123.5 80 Z "></path><path fill="#e8c25d" stroke="#e8c25d" stroke-width="1" opacity="0.6196078431372549" d="M 1195.5 80 L 1236.5 80 L 1238 81.5 L 1237.5 90 L 1237 81 L 1195.5 81 L 1195 81.5 L 1195 89.5 L 1194 89.5 L 1194 81.5 L 1195.5 80 Z "></path><path fill="#e8c25d" stroke="#e8c25d" stroke-width="1" opacity="0.6196078431372549" d="M 1283.5 80 L 1324 80.5 L 1283.5 81 L 1283.5 80 Z "></path><path fill="#e8c25d" stroke="#e8c25d" stroke-width="1" opacity="0.6196078431372549" d="M 1395.5 80 L 1396.5 82 L 1394 81.5 L 1395.5 80 Z "></path><path fill="#e8c25d" stroke="#e8c25d" stroke-width="1" opacity="0.6196078431372549" d="M 1470.5 80 L 1495 80.5 L 1470 81 L 1470 136 L 1495.5 136 L 1495.5 137 L 1469 137 L 1469 81.5 L 1470.5 80 Z "></path><path fill="#e8c25d" stroke="#e8c25d" stroke-width="1" opacity="0.6196078431372549" d="M 914.5 81 L 915 136 L 925 136.5 L 914 137 L 914.5 81 Z "></path><path fill="#e8c25d" stroke="#e8c25d" stroke-width="1" opacity="0.6196078431372549" d="M 1498.5 81 L 1501 81.5 L 1498.5 82 L 1498.5 81 Z "></path><path fill="#e8c25d" stroke="#e8c25d" stroke-width="1" opacity="0.6196078431372549" d="M 131.5 82 L 129.5 85 L 131.5 82 Z "></path><path fill="#e8c25d" stroke="#e8c25d" stroke-width="1" opacity="0.6196078431372549" d="M 408.5 82 L 411 83.5 L 409.5 83 L 408.5 82 Z "></path><path fill="#e8c25d" stroke="#e8c25d" stroke-width="1" opacity="0.6196078431372549" d="M 590.5 82 L 593 83.5 L 591.5 83 L 590.5 82 Z "></path><path fill="#e8c25d" stroke="#e8c25d" stroke-width="1" opacity="0.6196078431372549" d="M 916.5 82 L 918.5 85 L 916.5 82 Z "></path><path fill="#e8c25d" stroke="#e8c25d" stroke-width="1" opacity="0.6196078431372549" d="M 117.5 83 L 115.5 86 L 117.5 83 Z "></path><path fill="#e8c25d" stroke="#e8c25d" stroke-width="1" opacity="0.6196078431372549" d="M 380.5 83 L 379.5 85 L 380.5 83 Z "></path><path fill="#e8c25d" stroke="#e8c25d" stroke-width="1" opacity="0.6196078431372549" d="M 562.5 83 L 561.5 85 L 562.5 83 Z "></path><path fill="#e8c25d" stroke="#e8c25d" stroke-width="1" opacity="0.6196078431372549" d="M 1116.5 83 L 1115.5 85 L 1116.5 83 Z "></path><path fill="#e8c25d" stroke="#e8c25d" stroke-width="1" opacity="0.6196078431372549" d="M 1504.5 83 L 1507 84.5 L 1505.5 84 L 1504.5 83 Z "></path><path fill="#e8c25d" stroke="#e8c25d" stroke-width="1" opacity="0.6196078431372549" d="M 596.5 85 L 597.5 87 L 596.5 85 Z "></path><path fill="#e8c25d" stroke="#e8c25d" stroke-width="1" opacity="0.6196078431372549" d="M 855.5 85 L 860.5 91 L 855.5 85 Z "></path><path fill="#e8c25d" stroke="#e8c25d" stroke-width="1" opacity="0.6196078431372549" d="M 1508.5 85 L 1509.5 87 L 1508.5 85 Z "></path><path fill="#e8c25d" stroke="#e8c25d" stroke-width="1" opacity="0.6196078431372549" d="M 377.5 86 L 376.5 88 L 377.5 86 Z "></path><path fill="#e8c25d" stroke="#e8c25d" stroke-width="1" opacity="0.6196078431372549" d="M 559.5 86 L 558.5 88 L 559.5 86 Z "></path><path fill="#e8c25d" stroke="#e8c25d" stroke-width="1" opacity="0.6196078431372549" d="M 127.5 87 L 125.5 90 L 127.5 87 Z "></path><path fill="#e8c25d" stroke="#e8c25d" stroke-width="1" opacity="0.6196078431372549" d="M 964.5 87 L 961.5 91 L 964.5 87 Z "></path><path fill="#e8c25d" stroke="#e8c25d" stroke-width="1" opacity="0.6196078431372549" d="M 113.5 88 L 112.5 90 L 113.5 88 Z "></path><path fill="#e8c25d" stroke="#e8c25d" stroke-width="1" opacity="0.6196078431372549" d="M 286.5 88 L 291.5 94 L 286.5 88 Z "></path><path fill="#e8c25d" stroke="#e8c25d" stroke-width="1" opacity="0.6196078431372549" d="M 414.5 89 L 413.5 91 L 414.5 89 Z "></path><path fill="#e8c25d" stroke="#e8c25d" stroke-width="1" opacity="0.6196078431372549" d="M 596.5 89 L 595.5 91 L 596.5 89 Z "></path><path fill="#e8c25d" stroke="#e8c25d" stroke-width="1" opacity="0.6196078431372549" d="M 835.5 89 L 840 89.5 L 835.5 90 L 835.5 89 Z "></path><path fill="#e8c25d" stroke="#e8c25d" stroke-width="1" opacity="0.6196078431372549" d="M 922.5 89 L 924.5 92 L 922.5 89 Z "></path><path fill="#e8c25d" stroke="#e8c25d" stroke-width="1" opacity="0.6196078431372549" d="M 1150.5 89 L 1149.5 91 L 1150.5 89 Z "></path><path fill="#e8c25d" stroke="#e8c25d" stroke-width="1" opacity="0.6196078431372549" d="M 571.5 90 L 573 90.5 L 567.5 94 L 569.5 91 L 571.5 90 Z "></path><path fill="#e8c25d" stroke="#e8c25d" stroke-width="1" opacity="0.6196078431372549" d="M 1210.5 90 L 1211 136 L 1220.5 136 L 1221 135.5 L 1221 90.5 L 1222 90.5 L 1222 135.5 L 1220.5 137 L 1211.5 137 L 1210 135.5 L 1210.5 90 Z "></path><path fill="#e8c25d" stroke="#e8c25d" stroke-width="1" opacity="0.6196078431372549" d="M 1293.5 90 L 1294 103.5 L 1293 103.5 L 1293.5 90 Z "></path><path fill="#e8c25d" stroke="#e8c25d" stroke-width="1" opacity="0.6196078431372549" d="M 1480.5 90 L 1497 90.5 L 1480.5 91 L 1480.5 90 Z "></path><path fill="#e8c25d" stroke="#e8c25d" stroke-width="1" opacity="0.6196078431372549" d="M 387.5 91 L 385.5 94 L 387.5 91 Z "></path><path fill="#e8c25d" stroke="#e8c25d" stroke-width="1" opacity="0.6196078431372549" d="M 556.5 91 L 557 93.5 L 556 93.5 L 556.5 91 Z "></path><path fill="#e8c25d" stroke="#e8c25d" stroke-width="1" opacity="0.6196078431372549" d="M 814.5 91 L 813.5 93 L 814.5 91 Z "></path><path fill="#e8c25d" stroke="#e8c25d" stroke-width="1" opacity="0.6196078431372549" d="M 1123.5 91 L 1121.5 94 L 1123.5 91 Z "></path><path fill="#e8c25d" stroke="#e8c25d" stroke-width="1" opacity="0.6196078431372549" d="M 1514.5 91 L 1515.5 93 L 1514.5 91 Z "></path><path fill="#e8c25d" stroke="#e8c25d" stroke-width="1" opacity="0.6196078431372549" d="M 123.5 92 L 121.5 95 L 123.5 92 Z "></path><path fill="#e8c25d" stroke="#e8c25d" stroke-width="1" opacity="0.6196078431372549" d="M 412.5 92 L 411.5 94 L 412.5 92 Z "></path><path fill="#e8c25d" stroke="#e8c25d" stroke-width="1" opacity="0.6196078431372549" d="M 594.5 92 L 593.5 94 L 594.5 92 Z "></path><path fill="#e8c25d" stroke="#e8c25d" stroke-width="1" opacity="0.6196078431372549" d="M 847.5 92 L 848.5 94 L 847.5 92 Z "></path><path fill="#e8c25d" stroke="#e8c25d" stroke-width="1" opacity="0.6196078431372549" d="M 1501.5 92 L 1502.5 94 L 1501.5 92 Z "></path><path fill="#e8c25d" stroke="#e8c25d" stroke-width="1" opacity="0.6196078431372549" d="M 109.5 93 L 108.5 95 L 109.5 93 Z "></path><path fill="#e8c25d" stroke="#e8c25d" stroke-width="1" opacity="0.6196078431372549" d="M 407.5 93 L 408.5 95 L 407.5 93 Z "></path><path fill="#e8c25d" stroke="#e8c25d" stroke-width="1" opacity="0.6196078431372549" d="M 589.5 93 L 590.5 95 L 589.5 93 Z "></path><path fill="#e8c25d" stroke="#e8c25d" stroke-width="1" opacity="0.6196078431372549" d="M 1143.5 93 L 1144.5 95 L 1143.5 93 Z "></path><path fill="#e8c25d" stroke="#e8c25d" stroke-width="1" opacity="0.6196078431372549" d="M 1147.5 93 L 1146.5 95 L 1147.5 93 Z "></path><path fill="#e8c25d" stroke="#e8c25d" stroke-width="1" opacity="0.6196078431372549" d="M 825.5 94 L 824.5 96 L 825.5 94 Z "></path><path fill="#e8c25d" stroke="#e8c25d" stroke-width="1" opacity="0.6196078431372549" d="M 958.5 94 L 955.5 98 L 958.5 94 Z "></path><path fill="#e8c25d" stroke="#e8c25d" stroke-width="1" opacity="0.6196078431372549" d="M 927.5 95 L 930.5 99 L 927.5 95 Z "></path><path fill="#e8c25d" stroke="#e8c25d" stroke-width="1" opacity="0.6196078431372549" d="M 851.5 96 L 852.5 98 L 851.5 96 Z "></path><path fill="#e8c25d" stroke="#e8c25d" stroke-width="1" opacity="0.6196078431372549" d="M 1505.5 96 L 1508 100.5 L 1507 100.5 L 1505.5 96 Z "></path><path fill="#e8c25d" stroke="#e8c25d" stroke-width="1" opacity="0.6196078431372549" d="M 106.5 97 L 104.5 100 L 106.5 97 Z "></path><path fill="#e8c25d" stroke="#e8c25d" stroke-width="1" opacity="0.6196078431372549" d="M 119.5 97 L 117.5 100 L 119.5 97 Z "></path><path fill="#e8c25d" stroke="#e8c25d" stroke-width="1" opacity="0.6196078431372549" d="M 1404.5 97 L 1410 106.5 L 1408 105.5 L 1404.5 97 Z "></path><path fill="#e8c25d" stroke="#e8c25d" stroke-width="1" opacity="0.6196078431372549" d="M 297.5 98 L 303.5 105 L 297.5 98 Z "></path><path fill="#e8c25d" stroke="#e8c25d" stroke-width="1" opacity="0.6196078431372549" d="M 385.5 98 L 386.5 100 L 385.5 98 Z "></path><path fill="#e8c25d" stroke="#e8c25d" stroke-width="1" opacity="0.6196078431372549" d="M 1121.5 98 L 1122.5 100 L 1121.5 98 Z "></path><path fill="#e8c25d" stroke="#e8c25d" stroke-width="1" opacity="0.6196078431372549" d="M 952.5 101 L 949.5 105 L 952.5 101 Z "></path><path fill="#e8c25d" stroke="#e8c25d" stroke-width="1" opacity="0.6196078431372549" d="M 102.5 102 L 101.5 104 L 102.5 102 Z "></path><path fill="#e8c25d" stroke="#e8c25d" stroke-width="1" opacity="0.6196078431372549" d="M 115.5 102 L 113.5 105 L 115.5 102 Z "></path><path fill="#e8c25d" stroke="#e8c25d" stroke-width="1" opacity="0.6196078431372549" d="M 202.5 102 L 203.5 104 L 202.5 102 Z "></path><path fill="#e8c25d" stroke="#e8c25d" stroke-width="1" opacity="0.6196078431372549" d="M 487.5 102 L 488.5 104 L 486 103.5 L 487.5 102 Z "></path><path fill="#e8c25d" stroke="#e8c25d" stroke-width="1" opacity="0.6196078431372549" d="M 557.5 102 L 559 104.5 L 557 103.5 L 557.5 102 Z "></path><path fill="#e8c25d" stroke="#e8c25d" stroke-width="1" opacity="0.6196078431372549" d="M 933.5 102 L 936.5 106 L 933.5 102 Z "></path><path fill="#e8c25d" stroke="#e8c25d" stroke-width="1" opacity="0.6196078431372549" d="M 1130.5 102 L 1133 102.5 L 1130.5 103 L 1130.5 102 Z "></path><path fill="#e8c25d" stroke="#e8c25d" stroke-width="1" opacity="0.6196078431372549" d="M 1395.5 102 L 1396.5 104 L 1394 103.5 L 1395.5 102 Z "></path><path fill="#e8c25d" stroke="#e8c25d" stroke-width="1" opacity="0.6196078431372549" d="M 375.5 103 L 376.5 105 L 375.5 103 Z "></path><path fill="#e8c25d" stroke="#e8c25d" stroke-width="1" opacity="0.6196078431372549" d="M 398.5 103 L 401 103.5 L 398.5 104 L 398.5 103 Z "></path><path fill="#e8c25d" stroke="#e8c25d" stroke-width="1" opacity="0.6196078431372549" d="M 580.5 103 L 583 103.5 L 580.5 104 L 580.5 103 Z "></path><path fill="#e8c25d" stroke="#e8c25d" stroke-width="1" opacity="0.6196078431372549" d="M 866.5 103 L 867 107.5 L 866 107.5 L 866.5 103 Z "></path><path fill="#e8c25d" stroke="#e8c25d" stroke-width="1" opacity="0.6196078431372549" d="M 1134.5 103 L 1137 103.5 L 1134.5 104 L 1134.5 103 Z "></path><path fill="#e8c25d" stroke="#e8c25d" stroke-width="1" opacity="0.6196078431372549" d="M 1508.5 103 L 1509 113.5 L 1508 113.5 L 1508.5 103 Z "></path><path fill="#e8c25d" stroke="#e8c25d" stroke-width="1" opacity="0.6196078431372549" d="M 1320.5 104 L 1321 113.5 L 1320 113.5 L 1320.5 104 Z "></path><path fill="#e8c25d" stroke="#e8c25d" stroke-width="1" opacity="0.6196078431372549" d="M 819.5 105 L 820 111.5 L 819 111.5 L 819.5 105 Z "></path><path fill="#e8c25d" stroke="#e8c25d" stroke-width="1" opacity="0.6196078431372549" d="M 1519.5 105 L 1520 112.5 L 1519 112.5 L 1519.5 105 Z "></path><path fill="#e8c25d" stroke="#e8c25d" stroke-width="1" opacity="0.6196078431372549" d="M 111.5 107 L 110.5 109 L 111.5 107 Z "></path><path fill="#e8c25d" stroke="#e8c25d" stroke-width="1" opacity="0.6196078431372549" d="M 594.5 107 L 598.5 112 L 594.5 107 Z "></path><path fill="#e8c25d" stroke="#e8c25d" stroke-width="1" opacity="0.6196078431372549" d="M 380.5 108 L 383 109.5 L 381.5 110 L 380.5 108 Z "></path><path fill="#e8c25d" stroke="#e8c25d" stroke-width="1" opacity="0.6196078431372549" d="M 413.5 108 L 416.5 112 L 413.5 108 Z "></path><path fill="#e8c25d" stroke="#e8c25d" stroke-width="1" opacity="0.6196078431372549" d="M 946.5 108 L 942.5 113 L 939.5 109 L 942.5 112 L 946.5 108 Z "></path><path fill="#e8c25d" stroke="#e8c25d" stroke-width="1" opacity="0.6196078431372549" d="M 1116.5 108 L 1119 109.5 L 1117.5 110 L 1116.5 108 Z "></path><path fill="#e8c25d" stroke="#e8c25d" stroke-width="1" opacity="0.6196078431372549" d="M 1149.5 108 L 1151.5 111 L 1149.5 108 Z "></path><path fill="#e8c25d" stroke="#e8c25d" stroke-width="1" opacity="0.6196078431372549" d="M 564.5 109 L 567 110.5 L 565.5 111 L 564.5 109 Z "></path><path fill="#e8c25d" stroke="#e8c25d" stroke-width="1" opacity="0.6196078431372549" d="M 866.5 109 L 867 113.5 L 866 113.5 L 866.5 109 Z "></path><path fill="#e8c25d" stroke="#e8c25d" stroke-width="1" opacity="0.6196078431372549" d="M 110.5 110 L 114.5 115 L 110.5 110 Z "></path><path fill="#e8c25d" stroke="#e8c25d" stroke-width="1" opacity="0.6196078431372549" d="M 295.5 110 L 299.5 115 L 295.5 110 Z "></path><path fill="#e8c25d" stroke="#e8c25d" stroke-width="1" opacity="0.6196078431372549" d="M 958.5 110 L 956.5 113 L 958.5 110 Z "></path><path fill="#e8c25d" stroke="#e8c25d" stroke-width="1" opacity="0.6196078431372549" d="M 928.5 112 L 929.5 114 L 928.5 112 Z "></path><path fill="#e8c25d" stroke="#e8c25d" stroke-width="1" opacity="0.6196078431372549" d="M 1125.5 112 L 1128 112.5 L 1125.5 113 L 1125.5 112 Z "></path><path fill="#e8c25d" stroke="#e8c25d" stroke-width="1" opacity="0.6196078431372549" d="M 395.5 113 L 398 113.5 L 395.5 114 L 395.5 113 Z "></path><path fill="#e8c25d" stroke="#e8c25d" stroke-width="1" opacity="0.6196078431372549" d="M 577.5 113 L 580 113.5 L 577.5 114 L 577.5 113 Z "></path><path fill="#e8c25d" stroke="#e8c25d" stroke-width="1" opacity="0.6196078431372549" d="M 723.5 114 L 751 114 L 751 136 L 760.5 136 L 760.5 137 L 751.5 137 L 750 135.5 L 750 115 L 723.5 115 L 723.5 114 Z "></path><path fill="#e8c25d" stroke="#e8c25d" stroke-width="1" opacity="0.6196078431372549" d="M 1293.5 114 L 1294 126.5 L 1293 126.5 L 1293.5 114 Z "></path><path fill="#e8c25d" stroke="#e8c25d" stroke-width="1" opacity="0.6196078431372549" d="M 585.5 115 L 588 116.5 L 586.5 116 L 585.5 115 Z "></path><path fill="#e8c25d" stroke="#e8c25d" stroke-width="1" opacity="0.6196078431372549" d="M 418.5 116 L 419 124.5 L 418 124.5 L 418.5 116 Z "></path><path fill="#e8c25d" stroke="#e8c25d" stroke-width="1" opacity="0.6196078431372549" d="M 600.5 116 L 601 118.5 L 600 118.5 L 600.5 116 Z "></path><path fill="#e8c25d" stroke="#e8c25d" stroke-width="1" opacity="0.6196078431372549" d="M 953.5 116 L 951.5 119 L 953.5 116 Z "></path><path fill="#e8c25d" stroke="#e8c25d" stroke-width="1" opacity="0.6196078431372549" d="M 1154.5 116 L 1155 124.5 L 1154 124.5 L 1154.5 116 Z "></path><path fill="#e8c25d" stroke="#e8c25d" stroke-width="1" opacity="0.6196078431372549" d="M 932.5 117 L 934.5 120 L 932.5 117 Z "></path><path fill="#e8c25d" stroke="#e8c25d" stroke-width="1" opacity="0.6196078431372549" d="M 305.5 119 L 310.5 125 L 305.5 119 Z "></path><path fill="#e8c25d" stroke="#e8c25d" stroke-width="1" opacity="0.6196078431372549" d="M 811.5 120 L 813 122.5 L 811 121.5 L 811.5 120 Z "></path><path fill="#e8c25d" stroke="#e8c25d" stroke-width="1" opacity="0.6196078431372549" d="M 823.5 120 L 826.5 124 L 823.5 120 Z "></path><path fill="#e8c25d" stroke="#e8c25d" stroke-width="1" opacity="0.6196078431372549" d="M 107.5 122 L 113.5 129 L 107.5 122 Z "></path><path fill="#e8c25d" stroke="#e8c25d" stroke-width="1" opacity="0.6196078431372549" d="M 121.5 122 L 128.5 130 L 121.5 122 Z "></path><path fill="#e8c25d" stroke="#e8c25d" stroke-width="1" opacity="0.6196078431372549" d="M 382.5 122 L 383.5 124 L 382.5 122 Z "></path><path fill="#e8c25d" stroke="#e8c25d" stroke-width="1" opacity="0.6196078431372549" d="M 600.5 122 L 601 124.5 L 600 124.5 L 600.5 122 Z "></path><path fill="#e8c25d" stroke="#e8c25d" stroke-width="1" opacity="0.6196078431372549" d="M 948.5 122 L 946.5 125 L 948.5 122 Z "></path><path fill="#e8c25d" stroke="#e8c25d" stroke-width="1" opacity="0.6196078431372549" d="M 1118.5 122 L 1119.5 124 L 1118.5 122 Z "></path><path fill="#e8c25d" stroke="#e8c25d" stroke-width="1" opacity="0.6196078431372549" d="M 1504.5 122 L 1503.5 124 L 1504.5 122 Z "></path><path fill="#e8c25d" stroke="#e8c25d" stroke-width="1" opacity="0.6196078431372549" d="M 377.5 123 L 376.5 125 L 377.5 123 Z "></path><path fill="#e8c25d" stroke="#e8c25d" stroke-width="1" opacity="0.6196078431372549" d="M 559.5 123 L 558.5 125 L 559.5 123 Z "></path><path fill="#e8c25d" stroke="#e8c25d" stroke-width="1" opacity="0.6196078431372549" d="M 937.5 123 L 939.5 126 L 937.5 123 Z "></path><path fill="#e8c25d" stroke="#e8c25d" stroke-width="1" opacity="0.6196078431372549" d="M 1113.5 123 L 1112.5 125 L 1113.5 123 Z "></path><path fill="#e8c25d" stroke="#e8c25d" stroke-width="1" opacity="0.6196078431372549" d="M 588.5 124 L 587.5 126 L 588.5 124 Z "></path><path fill="#e8c25d" stroke="#e8c25d" stroke-width="1" opacity="0.6196078431372549" d="M 1501.5 124 L 1500.5 126 L 1499 125.5 L 1501.5 124 Z "></path><path fill="#e8c25d" stroke="#e8c25d" stroke-width="1" opacity="0.6196078431372549" d="M 861.5 125 L 860.5 127 L 861.5 125 Z "></path><path fill="#e8c25d" stroke="#e8c25d" stroke-width="1" opacity="0.6196078431372549" d="M 375.5 126 L 374.5 128 L 375.5 126 Z "></path><path fill="#e8c25d" stroke="#e8c25d" stroke-width="1" opacity="0.6196078431372549" d="M 557.5 126 L 556.5 128 L 557.5 126 Z "></path><path fill="#e8c25d" stroke="#e8c25d" stroke-width="1" opacity="0.6196078431372549" d="M 393.5 127 L 396 127.5 L 393.5 128 L 393.5 127 Z "></path><path fill="#e8c25d" stroke="#e8c25d" stroke-width="1" opacity="0.6196078431372549" d="M 398.5 127 L 401 127.5 L 398.5 128 L 398.5 127 Z "></path><path fill="#e8c25d" stroke="#e8c25d" stroke-width="1" opacity="0.6196078431372549" d="M 575.5 127 L 578 127.5 L 575.5 128 L 575.5 127 Z "></path><path fill="#e8c25d" stroke="#e8c25d" stroke-width="1" opacity="0.6196078431372549" d="M 580.5 127 L 584 127.5 L 580.5 128 L 580.5 127 Z "></path><path fill="#e8c25d" stroke="#e8c25d" stroke-width="1" opacity="0.6196078431372549" d="M 834.5 127 L 841 127.5 L 834.5 128 L 834.5 127 Z "></path><path fill="#e8c25d" stroke="#e8c25d" stroke-width="1" opacity="0.6196078431372549" d="M 1129.5 127 L 1132 127.5 L 1129.5 128 L 1129.5 127 Z "></path><path fill="#e8c25d" stroke="#e8c25d" stroke-width="1" opacity="0.6196078431372549" d="M 1134.5 127 L 1137 127.5 L 1134.5 128 L 1134.5 127 Z "></path><path fill="#e8c25d" stroke="#e8c25d" stroke-width="1" opacity="0.6196078431372549" d="M 816.5 128 L 818.5 131 L 816.5 128 Z "></path><path fill="#e8c25d" stroke="#e8c25d" stroke-width="1" opacity="0.6196078431372549" d="M 1512.5 128 L 1511.5 130 L 1512.5 128 Z "></path><path fill="#e8c25d" stroke="#e8c25d" stroke-width="1" opacity="0.6196078431372549" d="M 316.5 129 L 321.5 135 L 316.5 129 Z "></path><path fill="#e8c25d" stroke="#e8c25d" stroke-width="1" opacity="0.6196078431372549" d="M 416.5 129 L 415.5 131 L 416.5 129 Z "></path><path fill="#e8c25d" stroke="#e8c25d" stroke-width="1" opacity="0.6196078431372549" d="M 1152.5 129 L 1151.5 131 L 1152.5 129 Z "></path><path fill="#e8c25d" stroke="#e8c25d" stroke-width="1" opacity="0.6196078431372549" d="M 375.5 130 L 376.5 132 L 375.5 130 Z "></path><path fill="#e8c25d" stroke="#e8c25d" stroke-width="1" opacity="0.6196078431372549" d="M 557.5 130 L 558.5 132 L 557.5 130 Z "></path><path fill="#e8c25d" stroke="#e8c25d" stroke-width="1" opacity="0.6196078431372549" d="M 856.5 130 L 854.5 133 L 856.5 130 Z "></path><path fill="#e8c25d" stroke="#e8c25d" stroke-width="1" opacity="0.6196078431372549" d="M 1111.5 130 L 1112.5 132 L 1111.5 130 Z "></path><path fill="#e8c25d" stroke="#e8c25d" stroke-width="1" opacity="0.6196078431372549" d="M 1508.5 131 L 1507.5 133 L 1508.5 131 Z "></path><path fill="#e8c25d" stroke="#e8c25d" stroke-width="1" opacity="0.6196078431372549" d="M 378.5 132 L 381 133.5 L 379.5 134 L 378.5 132 Z "></path><path fill="#e8c25d" stroke="#e8c25d" stroke-width="1" opacity="0.6196078431372549" d="M 821.5 132 L 822.5 134 L 821.5 132 Z "></path><path fill="#e8c25d" stroke="#e8c25d" stroke-width="1" opacity="0.6196078431372549" d="M 412.5 133 L 411.5 135 L 412.5 133 Z "></path><path fill="#e8c25d" stroke="#e8c25d" stroke-width="1" opacity="0.6196078431372549" d="M 562.5 133 L 565 134.5 L 563.5 135 L 562.5 133 Z "></path><path fill="#e8c25d" stroke="#e8c25d" stroke-width="1" opacity="0.6196078431372549" d="M 594.5 133 L 593.5 135 L 594.5 133 Z "></path><path fill="#e8c25d" stroke="#e8c25d" stroke-width="1" opacity="0.6196078431372549" d="M 1148.5 133 L 1147.5 135 L 1148.5 133 Z "></path><path fill="#e8c25d" stroke="#e8c25d" stroke-width="1" opacity="0.6196078431372549" d="M 118.5 134 L 120.5 136 L 135 136.5 L 120.5 137 L 118.5 134 Z "></path><path fill="#e8c25d" stroke="#e8c25d" stroke-width="1" opacity="0.6196078431372549" d="M 219.5 135 L 220.5 136 L 230.5 136 L 232 135.5 L 231.5 137 L 220.5 137 L 219.5 135 Z "></path><path fill="#e8c25d" stroke="#e8c25d" stroke-width="1" opacity="0.6196078431372549" d="M 470.5 135 L 469.5 137 L 458 136.5 L 469.5 136 L 470.5 135 Z "></path><path fill="#e8c25d" stroke="#e8c25d" stroke-width="1" opacity="0.6196078431372549" d="M 504.5 135 L 505.5 136 L 517 136.5 L 505.5 137 L 504.5 135 Z "></path><path fill="#e8c25d" stroke="#e8c25d" stroke-width="1" opacity="0.6196078431372549" d="M 1378.5 135 L 1377.5 137 L 1366 136.5 L 1377.5 136 L 1378.5 135 Z "></path><path fill="#e8c25d" stroke="#e8c25d" stroke-width="1" opacity="0.6196078431372549" d="M 1412.5 135 L 1413.5 136 L 1425 136.5 L 1413.5 137 L 1412.5 135 Z "></path><path fill="#e8c25d" stroke="#e8c25d" stroke-width="1" opacity="0.6196078431372549" d="M 174.5 136 L 186 136.5 L 174.5 137 L 174.5 136 Z "></path><path fill="#e8c25d" stroke="#e8c25d" stroke-width="1" opacity="0.6196078431372549" d="M 960.5 136 L 971 136.5 L 960.5 137 L 960.5 136 Z "></path><path fill="#e8c25d" stroke="#e8c25d" stroke-width="1" opacity="0.6196078431372549" d="M 1283.5 136 L 1324 136.5 L 1283.5 137 L 1283.5 136 Z "></path><path fill="#e8c25d" stroke="#e8c25d" stroke-width="1" opacity="0.6196078431372549" d="M 391.5 137 L 403 137.5 L 391.5 138 L 391.5 137 Z "></path><path fill="#e8c25d" stroke="#e8c25d" stroke-width="1" opacity="0.6196078431372549" d="M 573.5 137 L 585 137.5 L 573.5 138 L 573.5 137 Z "></path><path fill="#e8c25d" stroke="#e8c25d" stroke-width="1" opacity="0.6196078431372549" d="M 833.5 137 L 843 137.5 L 833.5 138 L 833.5 137 Z "></path><path fill="#e8c25d" stroke="#e8c25d" stroke-width="1" opacity="0.6196078431372549" d="M 1127.5 137 L 1139 137.5 L 1127.5 138 L 1127.5 137 Z "></path><path fill="#e8c25d" stroke="#e8c25d" stroke-width="1" opacity="0.6196078431372549" d="M 319.5 179 L 335 179.5 L 319 180 L 319 213.5 L 322 214 L 322.5 202 L 323 213.5 L 319.5 215 L 318 213.5 L 318 180.5 L 319.5 179 Z "></path><path fill="#e8c25d" stroke="#e8c25d" stroke-width="1" opacity="0.6196078431372549" d="M 375.5 179 L 398 179.5 L 375.5 180 L 375.5 179 Z "></path><path fill="#e8c25d" stroke="#e8c25d" stroke-width="1" opacity="0.6196078431372549" d="M 429.5 179 L 433 179.5 L 429.5 180 L 429.5 179 Z "></path><path fill="#e8c25d" stroke="#e8c25d" stroke-width="1" opacity="0.6196078431372549" d="M 453.5 179 L 457 180.5 L 457 213.5 L 455.5 215 L 452 213.5 L 452 199 L 433.5 199 L 433.5 198 L 451.5 198 L 453 199.5 L 453 213.5 L 456 214 L 456 180.5 L 453 180 L 453 195 L 433.5 195 L 433.5 194 L 452 194 L 452 180.5 L 453.5 179 Z "></path><path fill="#e8c25d" stroke="#e8c25d" stroke-width="1" opacity="0.6196078431372549" d="M 500.5 179 L 504 179.5 L 499.5 181 L 500.5 179 Z "></path><path fill="#e8c25d" stroke="#e8c25d" stroke-width="1" opacity="0.6196078431372549" d="M 547.5 179 L 566 179.5 L 547.5 180 L 547.5 179 Z "></path><path fill="#e8c25d" stroke="#e8c25d" stroke-width="1" opacity="0.6196078431372549" d="M 604.5 179 Q 608.3 178.3 609 180.5 L 609 213.5 L 607.5 215 L 604 214.5 L 608 214 L 608 180.5 L 604.5 180 L 604.5 179 Z "></path><path fill="#e8c25d" stroke="#e8c25d" stroke-width="1" opacity="0.6196078431372549" d="M 641.5 179 Q 645.3 178.3 646 180.5 L 646 210 L 664.5 210 L 664.5 211 L 646.5 211 L 645 209.5 L 645 180.5 L 641.5 180 L 641.5 179 Z "></path><path fill="#e8c25d" stroke="#e8c25d" stroke-width="1" opacity="0.6196078431372549" d="M 694.5 179 Q 698.3 178.3 699 180.5 L 699 213.5 L 697.5 215 L 694 214.5 L 698 214 L 698 180.5 L 694.5 180 L 694.5 179 Z "></path><path fill="#e8c25d" stroke="#e8c25d" stroke-width="1" opacity="0.6196078431372549" d="M 728.5 179 L 755.5 179 L 757 180.5 L 755.5 184 L 745 184 L 745 213.5 Q 744.3 215.8 740.5 215 L 740.5 214 L 744 213.5 L 744 183 L 755.5 183 L 756 180 L 728.5 180 L 728.5 179 Z "></path><path fill="#e8c25d" stroke="#e8c25d" stroke-width="1" opacity="0.6196078431372549" d="M 793.5 179 L 797 179.5 L 792.5 181 L 793.5 179 Z "></path><path fill="#e8c25d" stroke="#e8c25d" stroke-width="1" opacity="0.6196078431372549" d="M 834.5 179 L 860.5 179 L 862 180.5 L 861.5 184 L 850 184 L 850 213.5 L 846.5 215 L 845 213.5 L 845 184 L 833.5 184 L 833 180.5 L 834.5 179 Z M 834 180 L 835 183 L 845 183 L 846 185 L 846 214 L 849 214 L 849 185 L 851 183 L 861 183 L 861 180 L 834 180 Z "></path><path fill="#e8c25d" stroke="#e8c25d" stroke-width="1" opacity="0.6196078431372549" d="M 891.5 179 Q 895.3 178.3 896 180.5 L 896 213.5 L 894.5 215 L 891 214.5 L 895 214 L 895 180.5 L 891.5 180 L 891.5 179 Z "></path><path fill="#e8c25d" stroke="#e8c25d" stroke-width="1" opacity="0.6196078431372549" d="M 939.5 179 L 946 179.5 L 939.5 180 L 939.5 179 Z "></path><path fill="#e8c25d" stroke="#e8c25d" stroke-width="1" opacity="0.6196078431372549" d="M 989.5 179 Q 993.3 178.3 994 180.5 L 992.5 180 Q 988.5 180.8 989.5 179 Z "></path><path fill="#e8c25d" stroke="#e8c25d" stroke-width="1" opacity="0.6196078431372549" d="M 1014.5 179 Q 1018.3 178.3 1019 180.5 L 1019 213.5 L 1017.5 215 L 1015 214.5 L 1018 214 L 1018 180.5 L 1014.5 180 L 1014.5 179 Z "></path><path fill="#e8c25d" stroke="#e8c25d" stroke-width="1" opacity="0.6196078431372549" d="M 1099.5 179 L 1106 179.5 L 1099.5 180 L 1099.5 179 Z "></path><path fill="#e8c25d" stroke="#e8c25d" stroke-width="1" opacity="0.6196078431372549" d="M 1156.5 179 L 1163 179.5 L 1156.5 180 L 1156.5 179 Z "></path><path fill="#e8c25d" stroke="#e8c25d" stroke-width="1" opacity="0.6196078431372549" d="M 1206.5 179 L 1223 179.5 L 1206.5 180 L 1206.5 179 Z "></path><path fill="#e8c25d" stroke="#e8c25d" stroke-width="1" opacity="0.6196078431372549" d="M 1263.5 179 L 1279 179.5 L 1263.5 180 L 1263.5 179 Z "></path><path fill="#e8c25d" stroke="#e8c25d" stroke-width="1" opacity="0.6196078431372549" d="M 950.5 181 L 955.5 187 L 950.5 181 Z "></path><path fill="#e8c25d" stroke="#e8c25d" stroke-width="1" opacity="0.6196078431372549" d="M 1110.5 181 L 1114.5 186 L 1110.5 181 Z "></path><path fill="#e8c25d" stroke="#e8c25d" stroke-width="1" opacity="0.6196078431372549" d="M 1167.5 181 L 1168.5 183 L 1167.5 181 Z "></path><path fill="#e8c25d" stroke="#e8c25d" stroke-width="1" opacity="0.6196078431372549" d="M 1092.5 182 L 1088.5 187 L 1092.5 182 Z "></path><path fill="#e8c25d" stroke="#e8c25d" stroke-width="1" opacity="0.6196078431372549" d="M 323.5 183 L 334 183.5 L 323 184 L 322.5 198 L 322 184.5 L 323.5 183 Z "></path><path fill="#e8c25d" stroke="#e8c25d" stroke-width="1" opacity="0.6196078431372549" d="M 379.5 183 L 398 183.5 L 379.5 184 L 379.5 183 Z "></path><path fill="#e8c25d" stroke="#e8c25d" stroke-width="1" opacity="0.6196078431372549" d="M 551 183 L 564 183.5 L 552 184 L 551.5 195 L 551 183 Z "></path><path fill="#e8c25d" stroke="#e8c25d" stroke-width="1" opacity="0.6196078431372549" d="M 728.5 183 L 740 183.5 L 728.5 184 L 728.5 183 Z "></path><path fill="#e8c25d" stroke="#e8c25d" stroke-width="1" opacity="0.6196078431372549" d="M 939.5 183 L 945 183.5 L 939.5 184 L 939.5 183 Z "></path><path fill="#e8c25d" stroke="#e8c25d" stroke-width="1" opacity="0.6196078431372549" d="M 995.5 183 L 997.5 186 L 995.5 183 Z "></path><path fill="#e8c25d" stroke="#e8c25d" stroke-width="1" opacity="0.6196078431372549" d="M 1099.5 183 L 1105 183.5 L 1099.5 184 L 1099.5 183 Z "></path><path fill="#e8c25d" stroke="#e8c25d" stroke-width="1" opacity="0.6196078431372549" d="M 1156.5 183 L 1162 183.5 L 1156.5 184 L 1156.5 183 Z "></path><path fill="#e8c25d" stroke="#e8c25d" stroke-width="1" opacity="0.6196078431372549" d="M 1211.5 183 L 1222 183.5 L 1211 184 L 1210.5 198 L 1210 184.5 L 1211.5 183 Z "></path><path fill="#e8c25d" stroke="#e8c25d" stroke-width="1" opacity="0.6196078431372549" d="M 1267.5 183 L 1279 183.5 L 1267.5 184 L 1267.5 183 Z "></path><path fill="#e8c25d" stroke="#e8c25d" stroke-width="1" opacity="0.6196078431372549" d="M 341.5 184 L 342.5 186 L 341.5 184 Z "></path><path fill="#e8c25d" stroke="#e8c25d" stroke-width="1" opacity="0.6196078431372549" d="M 565.5 184 L 566.5 186 L 565.5 184 Z "></path><path fill="#e8c25d" stroke="#e8c25d" stroke-width="1" opacity="0.6196078431372549" d="M 1229.5 184 L 1231 186.5 L 1230 186.5 L 1229.5 184 Z "></path><path fill="#e8c25d" stroke="#e8c25d" stroke-width="1" opacity="0.6196078431372549" d="M 1280.5 184 L 1281.5 186 L 1280.5 184 Z "></path><path fill="#e8c25d" stroke="#e8c25d" stroke-width="1" opacity="0.6196078431372549" d="M 501.5 185 L 502.5 187 L 501.5 185 Z "></path><path fill="#e8c25d" stroke="#e8c25d" stroke-width="1" opacity="0.6196078431372549" d="M 794.5 185 L 795.5 187 L 794.5 185 Z "></path><path fill="#e8c25d" stroke="#e8c25d" stroke-width="1" opacity="0.6196078431372549" d="M 935.5 185 L 933.5 188 L 935.5 185 Z "></path><path fill="#e8c25d" stroke="#e8c25d" stroke-width="1" opacity="0.6196078431372549" d="M 948.5 185 L 949.5 187 L 948.5 185 Z "></path><path fill="#e8c25d" stroke="#e8c25d" stroke-width="1" opacity="0.6196078431372549" d="M 1095.5 185 L 1092.5 189 L 1095.5 185 Z "></path><path fill="#e8c25d" stroke="#e8c25d" stroke-width="1" opacity="0.6196078431372549" d="M 1108.5 185 L 1110.5 188 L 1108.5 185 Z "></path><path fill="#e8c25d" stroke="#e8c25d" stroke-width="1" opacity="0.6196078431372549" d="M 1171.5 185 L 1172.5 187 L 1171.5 185 Z "></path><path fill="#e8c25d" stroke="#e8c25d" stroke-width="1" opacity="0.6196078431372549" d="M 1146.5 186 L 1145.5 188 L 1146.5 186 Z "></path><path fill="#e8c25d" stroke="#e8c25d" stroke-width="1" opacity="0.6196078431372549" d="M 567.5 187 L 568 191.5 L 566 192.5 L 567.5 187 Z "></path><path fill="#e8c25d" stroke="#e8c25d" stroke-width="1" opacity="0.6196078431372549" d="M 1287.5 187 L 1288 193.5 L 1287 193.5 L 1287.5 187 Z "></path><path fill="#e8c25d" stroke="#e8c25d" stroke-width="1" opacity="0.6196078431372549" d="M 343.5 188 L 344 193.5 L 343 193.5 L 343.5 188 Z "></path><path fill="#e8c25d" stroke="#e8c25d" stroke-width="1" opacity="0.6196078431372549" d="M 993.5 188 L 994 213.5 Q 993.3 215.8 989.5 215 L 989.5 214 L 993 213.5 L 993.5 188 Z "></path><path fill="#e8c25d" stroke="#e8c25d" stroke-width="1" opacity="0.6196078431372549" d="M 999.5 188 L 1001.5 191 L 999.5 188 Z "></path><path fill="#e8c25d" stroke="#e8c25d" stroke-width="1" opacity="0.6196078431372549" d="M 1168.5 188 L 1169.5 190 L 1168.5 188 Z "></path><path fill="#e8c25d" stroke="#e8c25d" stroke-width="1" opacity="0.6196078431372549" d="M 1231.5 188 L 1232 193.5 L 1231 193.5 L 1231.5 188 Z "></path><path fill="#e8c25d" stroke="#e8c25d" stroke-width="1" opacity="0.6196078431372549" d="M 995.5 190 L 996.5 192 L 995.5 190 Z "></path><path fill="#e8c25d" stroke="#e8c25d" stroke-width="1" opacity="0.6196078431372549" d="M 338.5 193 L 339 194.5 L 335 197.5 L 338.5 193 Z "></path><path fill="#e8c25d" stroke="#e8c25d" stroke-width="1" opacity="0.6196078431372549" d="M 958.5 193 L 959 200.5 L 958 200.5 L 958.5 193 Z "></path><path fill="#e8c25d" stroke="#e8c25d" stroke-width="1" opacity="0.6196078431372549" d="M 1003.5 193 L 1004.5 195 L 1003.5 193 Z "></path><path fill="#e8c25d" stroke="#e8c25d" stroke-width="1" opacity="0.6196078431372549" d="M 1175.5 193 L 1176 200.5 L 1175 200.5 L 1175.5 193 Z "></path><path fill="#e8c25d" stroke="#e8c25d" stroke-width="1" opacity="0.6196078431372549" d="M 1226.5 193 L 1227 194.5 L 1223 197.5 L 1226.5 193 Z "></path><path fill="#e8c25d" stroke="#e8c25d" stroke-width="1" opacity="0.6196078431372549" d="M 930.5 194 L 931 199.5 L 930 199.5 L 930.5 194 Z "></path><path fill="#e8c25d" stroke="#e8c25d" stroke-width="1" opacity="0.6196078431372549" d="M 1147.5 194 L 1148 199.5 L 1147 199.5 L 1147.5 194 Z "></path><path fill="#e8c25d" stroke="#e8c25d" stroke-width="1" opacity="0.6196078431372549" d="M 395.5 195 L 396 197.5 L 394.5 199 L 379.5 199 L 379.5 198 L 394.5 198 L 395.5 195 Z "></path><path fill="#e8c25d" stroke="#e8c25d" stroke-width="1" opacity="0.6196078431372549" d="M 999.5 195 L 1001.5 198 L 999.5 195 Z "></path><path fill="#e8c25d" stroke="#e8c25d" stroke-width="1" opacity="0.6196078431372549" d="M 1085.5 195 L 1086 197.5 L 1085 197.5 L 1085.5 195 Z "></path><path fill="#e8c25d" stroke="#e8c25d" stroke-width="1" opacity="0.6196078431372549" d="M 1286.5 195 L 1287 196.5 L 1285 197.5 L 1286.5 195 Z "></path><path fill="#e8c25d" stroke="#e8c25d" stroke-width="1" opacity="0.6196078431372549" d="M 341.5 197 L 339.5 200 L 341.5 197 Z "></path><path fill="#e8c25d" stroke="#e8c25d" stroke-width="1" opacity="0.6196078431372549" d="M 569.5 197 L 572.5 201 L 569.5 197 Z "></path><path fill="#e8c25d" stroke="#e8c25d" stroke-width="1" opacity="0.6196078431372549" d="M 1229.5 197 L 1227.5 200 L 1229.5 197 Z "></path><path fill="#e8c25d" stroke="#e8c25d" stroke-width="1" opacity="0.6196078431372549" d="M 551 198 L 565 198.5 L 552 199 L 552 210 L 564.5 210 L 564.5 211 L 551 211 L 551 198 Z "></path><path fill="#e8c25d" stroke="#e8c25d" stroke-width="1" opacity="0.6196078431372549" d="M 1007.5 198 L 1009.5 201 L 1007.5 198 Z "></path><path fill="#e8c25d" stroke="#e8c25d" stroke-width="1" opacity="0.6196078431372549" d="M 507.5 199 L 508 201 L 495 200.5 L 506.5 200 L 507.5 199 Z "></path><path fill="#e8c25d" stroke="#e8c25d" stroke-width="1" opacity="0.6196078431372549" d="M 566.5 199 L 567.5 201 L 566.5 199 Z "></path><path fill="#e8c25d" stroke="#e8c25d" stroke-width="1" opacity="0.6196078431372549" d="M 800.5 199 L 801 201 L 788 200.5 L 799.5 200 L 800.5 199 Z "></path><path fill="#e8c25d" stroke="#e8c25d" stroke-width="1" opacity="0.6196078431372549" d="M 337.5 200 L 337.5 203 Q 334.5 201.5 337.5 200 Z "></path><path fill="#e8c25d" stroke="#e8c25d" stroke-width="1" opacity="0.6196078431372549" d="M 1003.5 200 L 1004.5 202 L 1003.5 200 Z "></path><path fill="#e8c25d" stroke="#e8c25d" stroke-width="1" opacity="0.6196078431372549" d="M 1225.5 200 L 1225.5 203 Q 1222.5 201.5 1225.5 200 Z "></path><path fill="#e8c25d" stroke="#e8c25d" stroke-width="1" opacity="0.6196078431372549" d="M 1210.5 202 L 1211 213.5 Q 1210.3 215.8 1206.5 215 L 1206.5 214 L 1210 213.5 L 1210.5 202 Z "></path><path fill="#e8c25d" stroke="#e8c25d" stroke-width="1" opacity="0.6196078431372549" d="M 573.5 203 L 574 206.5 L 573 206.5 L 573.5 203 Z "></path><path fill="#e8c25d" stroke="#e8c25d" stroke-width="1" opacity="0.6196078431372549" d="M 1011.5 203 L 1012.5 205 L 1011.5 203 Z "></path><path fill="#e8c25d" stroke="#e8c25d" stroke-width="1" opacity="0.6196078431372549" d="M 338.5 204 L 339.5 206 L 338.5 204 Z "></path><path fill="#e8c25d" stroke="#e8c25d" stroke-width="1" opacity="0.6196078431372549" d="M 1112.5 204 L 1111.5 206 L 1112.5 204 Z "></path><path fill="#e8c25d" stroke="#e8c25d" stroke-width="1" opacity="0.6196078431372549" d="M 1007.5 205 L 1009.5 208 L 1007.5 205 Z "></path><path fill="#e8c25d" stroke="#e8c25d" stroke-width="1" opacity="0.6196078431372549" d="M 568.5 206 L 569 207.5 L 566 209.5 L 568.5 206 Z "></path><path fill="#e8c25d" stroke="#e8c25d" stroke-width="1" opacity="0.6196078431372549" d="M 933.5 206 L 934.5 208 L 933.5 206 Z "></path><path fill="#e8c25d" stroke="#e8c25d" stroke-width="1" opacity="0.6196078431372549" d="M 1093.5 206 L 1095.5 209 L 1093.5 206 Z "></path><path fill="#e8c25d" stroke="#e8c25d" stroke-width="1" opacity="0.6196078431372549" d="M 1115.5 206 L 1116 207.5 L 1114 208.5 L 1115.5 206 Z "></path><path fill="#e8c25d" stroke="#e8c25d" stroke-width="1" opacity="0.6196078431372549" d="M 1145.5 206 L 1146.5 208 L 1145.5 206 Z "></path><path fill="#e8c25d" stroke="#e8c25d" stroke-width="1" opacity="0.6196078431372549" d="M 1222.5 206 L 1223.5 208 L 1222.5 206 Z "></path><path fill="#e8c25d" stroke="#e8c25d" stroke-width="1" opacity="0.6196078431372549" d="M 949.5 207 L 948.5 209 L 949.5 207 Z "></path><path fill="#e8c25d" stroke="#e8c25d" stroke-width="1" opacity="0.6196078431372549" d="M 955.5 207 L 951.5 212 L 955.5 207 Z "></path><path fill="#e8c25d" stroke="#e8c25d" stroke-width="1" opacity="0.6196078431372549" d="M 1109.5 207 L 1107.5 210 L 1106 209.5 L 1109.5 207 Z "></path><path fill="#e8c25d" stroke="#e8c25d" stroke-width="1" opacity="0.6196078431372549" d="M 1166.5 207 L 1164.5 210 L 1163 209.5 L 1166.5 207 Z "></path><path fill="#e8c25d" stroke="#e8c25d" stroke-width="1" opacity="0.6196078431372549" d="M 1172.5 207 L 1171.5 209 L 1172.5 207 Z "></path><path fill="#e8c25d" stroke="#e8c25d" stroke-width="1" opacity="0.6196078431372549" d="M 336.5 209 L 337.5 211 L 336.5 209 Z "></path><path fill="#e8c25d" stroke="#e8c25d" stroke-width="1" opacity="0.6196078431372549" d="M 1090.5 209 L 1091.5 211 L 1090.5 209 Z "></path><path fill="#e8c25d" stroke="#e8c25d" stroke-width="1" opacity="0.6196078431372549" d="M 1224.5 209 L 1225.5 211 L 1224.5 209 Z "></path><path fill="#e8c25d" stroke="#e8c25d" stroke-width="1" opacity="0.6196078431372549" d="M 1229.5 209 L 1230.5 211 L 1229.5 209 Z "></path><path fill="#e8c25d" stroke="#e8c25d" stroke-width="1" opacity="0.6196078431372549" d="M 379.5 210 L 397.5 210 L 399 211.5 L 397.5 215 L 375 214.5 L 398 214 L 397.5 211 L 379.5 211 L 379.5 210 Z "></path><path fill="#e8c25d" stroke="#e8c25d" stroke-width="1" opacity="0.6196078431372549" d="M 940.5 210 L 945 210.5 L 940.5 211 L 940.5 210 Z "></path><path fill="#e8c25d" stroke="#e8c25d" stroke-width="1" opacity="0.6196078431372549" d="M 1011.5 210 L 1012.5 212 L 1011.5 210 Z "></path><path fill="#e8c25d" stroke="#e8c25d" stroke-width="1" opacity="0.6196078431372549" d="M 1099.5 210 L 1105 210.5 L 1099.5 211 L 1099.5 210 Z "></path><path fill="#e8c25d" stroke="#e8c25d" stroke-width="1" opacity="0.6196078431372549" d="M 1157.5 210 L 1162 210.5 L 1157.5 211 L 1157.5 210 Z "></path><path fill="#e8c25d" stroke="#e8c25d" stroke-width="1" opacity="0.6196078431372549" d="M 1111.5 211 L 1110.5 213 L 1111.5 211 Z "></path><path fill="#e8c25d" stroke="#e8c25d" stroke-width="1" opacity="0.6196078431372549" d="M 1168.5 211 L 1167.5 213 L 1168.5 211 Z "></path><path fill="#e8c25d" stroke="#e8c25d" stroke-width="1" opacity="0.6196078431372549" d="M 338.5 212 Q 339.3 214.7 343.5 214 L 343.5 212 L 345 215 Q 338.6 216.3 338.5 212 Z "></path><path fill="#e8c25d" stroke="#e8c25d" stroke-width="1" opacity="0.6196078431372549" d="M 949.5 212 L 948.5 214 L 947 213.5 L 949.5 212 Z "></path><path fill="#e8c25d" stroke="#e8c25d" stroke-width="1" opacity="0.6196078431372549" d="M 1231.5 212 Q 1234.5 213.5 1231.5 215 L 1228 214.5 L 1232 213.5 L 1231.5 212 Z "></path><path fill="#e8c25d" stroke="#e8c25d" stroke-width="1" opacity="0.6196078431372549" d="M 490.5 213 L 489.5 215 L 486 214.5 L 490.5 213 Z "></path><path fill="#e8c25d" stroke="#e8c25d" stroke-width="1" opacity="0.6196078431372549" d="M 517.5 213 L 518 215 L 513 214.5 L 517.5 213 Z "></path><path fill="#e8c25d" stroke="#e8c25d" stroke-width="1" opacity="0.6196078431372549" d="M 810.5 213 L 811 215 L 806 214.5 L 810.5 213 Z "></path><path fill="#e8c25d" stroke="#e8c25d" stroke-width="1" opacity="0.6196078431372549" d="M 429.5 214 L 433 214.5 L 429.5 215 L 429.5 214 Z "></path><path fill="#e8c25d" stroke="#e8c25d" stroke-width="1" opacity="0.6196078431372549" d="M 547.5 214 L 564 214.5 L 547.5 215 L 547.5 214 Z "></path><path fill="#e8c25d" stroke="#e8c25d" stroke-width="1" opacity="0.6196078431372549" d="M 641.5 214 L 665 214.5 L 641.5 215 L 641.5 214 Z "></path><path fill="#e8c25d" stroke="#e8c25d" stroke-width="1" opacity="0.6196078431372549" d="M 779.5 214 L 783 214.5 L 779.5 215 L 779.5 214 Z "></path><path fill="#e8c25d" stroke="#e8c25d" stroke-width="1" opacity="0.6196078431372549" d="M 939.5 214 L 945 214.5 L 939.5 215 L 939.5 214 Z "></path><path fill="#e8c25d" stroke="#e8c25d" stroke-width="1" opacity="0.6196078431372549" d="M 1099.5 214 L 1105 214.5 L 1099.5 215 L 1099.5 214 Z "></path><path fill="#e8c25d" stroke="#e8c25d" stroke-width="1" opacity="0.6196078431372549" d="M 1156.5 214 L 1162 214.5 L 1156.5 215 L 1156.5 214 Z "></path><path fill="#e8c25d" stroke="#e8c25d" stroke-width="1" opacity="0.6196078431372549" d="M 1263.5 214 L 1267 214.5 L 1263.5 215 L 1263.5 214 Z "></path><path fill="#e8c25d" stroke="#e8c25d" stroke-width="1" opacity="1" d="M 36 34 L 1569.5 34 L 1570 34.5 L 1570 204 L 1325.5 204 L 1325 200 L 1566 200 L 1566 38 L 40.5 38 L 40 38.5 L 40 200 L 280.5 200 L 281 204 L 36 204 L 36 34 Z "></path><path fill="#e8c25d" stroke="#e8c25d" stroke-width="1" opacity="1" d="M 390.5 80 Q 407.5 78.5 415 86.5 L 411 95 Q 405 90.3 394.5 89 L 389.5 90 L 385 93.5 L 384 96.5 L 386.5 100 L 390.5 102 L 409.5 106 L 417 112.5 Q 419.4 117.6 418 126.5 L 413.5 133 Q 405.5 139.5 388.5 137 L 374 130 L 379.5 121 Q 385.9 128.6 400.5 128 L 407 125 L 408 118.5 L 401.5 114 L 385.5 111 L 377 105.5 L 375 102.5 L 374 93.5 L 378 85 L 385.5 81 L 390.5 80 Z "></path><path fill="#e8c25d" stroke="#e8c25d" stroke-width="1" opacity="1" d="M 572.5 80 Q 590.5 78.5 598 87.5 L 593 95 Q 587 90.3 576.5 89 L 571.5 90 L 567 93.5 Q 565.8 99.6 568.5 99 L 576.5 103 L 591.5 106 L 599 112.5 L 601 121.5 L 600 126.5 L 595.5 133 Q 587.8 139.3 571.5 137 L 556 130 L 561.5 121 L 571.5 127 L 583.5 128 L 589 124.5 L 590 118.5 L 586.5 115 L 567.5 111 L 559 105.5 L 556 98.5 L 556 94.5 L 560 85 L 567.5 81 L 572.5 80 Z "></path><path fill="#e8c25d" stroke="#e8c25d" stroke-width="1" opacity="1" d="M 831.5 80 L 847.5 81 Q 856.9 84.6 862 92.5 L 866 101.5 Q 864.5 107 867 108.5 L 864 121.5 L 857.5 130 L 844.5 137 L 831.5 137 Q 819.9 134.1 814 125.5 L 809 113.5 L 809 103.5 Q 812 91.5 820.5 85 L 831.5 80 Z M 836 89 L 826 94 L 819 106 L 819 112 L 823 121 Q 827 126 835 128 Q 843 129 848 125 Q 853 121 856 114 Q 858 102 853 98 Q 849 89 836 89 Z "></path><path fill="#e8c25d" stroke="#e8c25d" stroke-width="1" opacity="1" d="M 1126.5 80 Q 1143.5 78.5 1151 86.5 L 1151 88.5 L 1145.5 95 Q 1140.3 89.7 1130.5 89 L 1125.5 90 L 1121 93.5 L 1120 96.5 L 1122.5 100 L 1126.5 102 L 1145.5 106 L 1153 112.5 Q 1155.4 117.6 1154 126.5 L 1149.5 133 Q 1141.5 139.5 1124.5 137 L 1110 130 L 1115.5 121 Q 1121.9 128.6 1136.5 128 L 1143 125 L 1144 118.5 L 1137.5 114 L 1121.5 111 L 1112 104.5 Q 1109.1 100.9 1110 93.5 L 1111 89.5 L 1114.5 85 L 1121.5 81 L 1126.5 80 Z "></path><path fill="#e8c25d" stroke="#e8c25d" stroke-width="1" opacity="1" d="M 87 81 L 97 81 L 97 107.5 L 98.5 108 L 119.5 81 L 132 81.5 L 113 104.5 L 110 110.5 L 134 135.5 L 120.5 136 L 98.5 112 L 97 112.5 L 97 136 L 87 136 L 87 81 Z "></path><path fill="#e8c25d" stroke="#e8c25d" stroke-width="1" opacity="1" d="M 202.5 81 L 205 83.5 L 231 136 L 220.5 136 L 219 134.5 L 202.5 102 L 186 136 L 174 135.5 L 202.5 81 Z "></path><path fill="#e8c25d" stroke="#e8c25d" stroke-width="1" opacity="1" d="M 277.5 81 L 313.5 114 L 315 114 L 315 81.5 L 315.5 81 L 325 81 L 325 135.5 L 323.5 136 L 295.5 110 L 287 104 L 287 135.5 L 286.5 136 L 277 136 L 277.5 81 Z "></path><path fill="#e8c25d" stroke="#e8c25d" stroke-width="1" opacity="1" d="M 487.5 81 L 516 135.5 L 505.5 136 L 487.5 102 L 469.5 136 L 459 135.5 L 487.5 81 Z "></path><path fill="#e8c25d" stroke="#e8c25d" stroke-width="1" opacity="1" d="M 713 81 L 723 81 L 723 105 L 751 105 L 751 81 L 761 81 L 761 135.5 L 760.5 136 L 751 136 L 751 114 L 723 114 L 723 136 L 713 136 L 713 81 Z "></path><path fill="#e8c25d" stroke="#e8c25d" stroke-width="1" opacity="1" d="M 915.5 81 L 942.5 113 L 970.5 81 L 971 136 L 960 136 L 960 109.5 L 956 112.5 L 942.5 129 L 925.5 109 L 925 136 L 915.5 136 L 915 135.5 L 915.5 81 Z "></path><path fill="#e8c25d" stroke="#e8c25d" stroke-width="1" opacity="1" d="M 1022 81 L 1061.5 81 L 1062 81.5 L 1062 90 L 1032 90 L 1032 104 L 1059 104 L 1059 114 L 1032 114 L 1032 127 L 1061.5 127 L 1062 127.5 L 1062 136 L 1022 136 L 1022 81 Z "></path><path fill="#e8c25d" stroke="#e8c25d" stroke-width="1" opacity="1" d="M 1195 81 L 1236.5 81 L 1237 81.5 L 1237 90 L 1221 90 L 1221 135.5 L 1220.5 136 L 1211 136 L 1211 90.5 L 1210.5 90 L 1195 90 L 1195 81 Z "></path><path fill="#e8c25d" stroke="#e8c25d" stroke-width="1" opacity="1" d="M 1283 81 L 1323.5 81 L 1324 81.5 L 1324 90 L 1293 90 L 1293 104 L 1320 104 L 1320 114 L 1293 114 L 1293 127 L 1323.5 127 L 1324 127.5 L 1324 136 L 1283 136 L 1283 81 Z "></path><path fill="#e8c25d" stroke="#e8c25d" stroke-width="1" opacity="1" d="M 1395.5 81 L 1424 135.5 L 1413.5 136 L 1395.5 102 L 1377.5 136 L 1367 135.5 L 1395.5 81 Z "></path><path fill="#e8c25d" stroke="#e8c25d" stroke-width="1" opacity="1" d="M 1470 81 L 1497.5 81 Q 1508 83.5 1514 90.5 L 1519 101.5 L 1519 115.5 Q 1516.9 125.9 1509.5 131 L 1498.5 136 L 1470 136 L 1470 81 Z M 1480 90 L 1480 127 L 1498 127 L 1504 124 Q 1508 120 1509 114 Q 1510 103 1507 98 Q 1504 92 1497 90 L 1480 90 Z "></path><path fill="#e8c25d" stroke="#e8c25d" stroke-width="1" opacity="1" d="M 319 180 L 336.5 180 L 341 183.5 Q 344.6 186.4 343 194.5 L 338.5 200 L 336 201.5 L 344 213.5 L 340.5 214 L 331.5 202 L 322 202 L 322 213.5 L 319 214 L 319 180 Z M 324 183 L 322 185 L 322 198 L 336 198 Q 341 196 339 188 Q 336 181 324 183 Z "></path><path fill="#e8c25d" stroke="#e8c25d" stroke-width="1" opacity="1" d="M 375 180 L 397.5 180 L 398 183 L 379 183 L 379 195 L 394.5 195 L 395 198 L 379 198 L 379 211 L 397.5 211 L 398 214 L 375 214 L 375 180 Z "></path><path fill="#e8c25d" stroke="#e8c25d" stroke-width="1" opacity="1" d="M 429 180 L 433 180.5 L 433 195 L 453 195 L 453 180.5 L 456 180 L 456 213.5 L 453 214 L 453 199.5 L 451.5 198 L 433 198 L 433 213.5 L 429 214 L 429 180 Z "></path><path fill="#e8c25d" stroke="#e8c25d" stroke-width="1" opacity="1" d="M 500.5 180 Q 504.9 178.5 504 181.5 L 517 214 L 513 214 L 513 212.5 L 508.5 204 L 494.5 204 L 494 205.5 L 489.5 214 L 486 213.5 L 500.5 180 Z M 502 185 L 495 201 L 508 201 L 504 189 L 502 185 Z "></path><path fill="#e8c25d" stroke="#e8c25d" stroke-width="1" opacity="1" d="M 547 180 L 566.5 180 L 570 182.5 Q 572.7 184.8 572 190.5 L 570 195 Q 567.3 193.9 568 196.5 L 573 201.5 L 573 208.5 L 570.5 212 L 566.5 214 L 547 214 L 547 180 Z M 551 183 L 551 195 L 565 195 L 568 192 L 567 186 L 564 183 L 551 183 Z M 551 198 L 551 211 L 565 211 L 569 208 L 568 201 L 565 198 L 551 198 Z "></path><path fill="#e8c25d" stroke="#e8c25d" stroke-width="1" opacity="1" d="M 604 180 L 608 180.5 L 608 214 L 604 213.5 L 604 180 Z "></path><path fill="#e8c25d" stroke="#e8c25d" stroke-width="1" opacity="1" d="M 641 180 L 645 180.5 L 645 209.5 L 646.5 211 L 665 211 L 664.5 214 L 641 214 L 641 180 Z "></path><path fill="#e8c25d" stroke="#e8c25d" stroke-width="1" opacity="1" d="M 694 180 L 698 180.5 L 698 214 L 694 213.5 L 694 180 Z "></path><path fill="#e8c25d" stroke="#e8c25d" stroke-width="1" opacity="1" d="M 728 180 L 755.5 180 L 756 183 L 744 183 L 744 213.5 L 740 214 L 740 183 L 728.5 183 L 728 180 Z "></path><path fill="#e8c25d" stroke="#e8c25d" stroke-width="1" opacity="1" d="M 793.5 180 Q 797.9 178.5 797 181.5 L 810 214 L 806 214 L 806 212.5 L 801.5 204 L 787.5 204 L 787 205.5 L 784 214 L 779 213.5 L 793.5 180 Z M 795 185 L 788 201 L 801 201 L 797 189 L 795 185 Z "></path><path fill="#e8c25d" stroke="#e8c25d" stroke-width="1" opacity="1" d="M 834 180 L 860.5 180 L 861 183 L 850.5 183 L 849 184.5 L 849 213.5 L 846 214 L 846 184.5 L 844.5 183 L 834.5 183 L 834 180 Z "></path><path fill="#e8c25d" stroke="#e8c25d" stroke-width="1" opacity="1" d="M 891 180 L 895 180.5 L 895 214 L 891 213.5 L 891 180 Z "></path><path fill="#e8c25d" stroke="#e8c25d" stroke-width="1" opacity="1" d="M 937.5 180 Q 952.3 178.3 956 187.5 Q 959.8 192.2 958 202.5 L 950.5 212 Q 946.5 215.5 937.5 214 L 929 207.5 L 926 199.5 L 926 193.5 Q 927.9 185.9 933.5 182 L 937.5 180 Z M 940 183 L 936 185 L 930 195 L 930 200 L 933 207 L 941 211 Q 946 212 949 209 L 954 202 Q 956 193 952 189 L 945 183 L 940 183 Z "></path><path fill="#e8c25d" stroke="#e8c25d" stroke-width="1" opacity="1" d="M 989 180 Q 993.7 179 995 182.5 L 1013.5 206 L 1014 180 L 1018 180.5 L 1018 214 Q 1014.2 215 1013 212.5 L 993.5 188 L 993 214 L 989 213.5 L 989 180 Z "></path><path fill="#e8c25d" stroke="#e8c25d" stroke-width="1" opacity="1" d="M 1097.5 180 L 1107.5 180 L 1115 186.5 L 1111.5 189 L 1108.5 185 Q 1105.8 182.2 1099.5 183 L 1092 188.5 Q 1089 192.5 1090 200.5 L 1095.5 209 Q 1098.2 211.8 1104.5 211 L 1113.5 205 L 1115 207.5 L 1112.5 211 Q 1108 215.5 1097.5 214 L 1089 207.5 Q 1084.8 202.7 1086 192.5 Q 1088.1 184.6 1094.5 181 L 1097.5 180 Z "></path><path fill="#e8c25d" stroke="#e8c25d" stroke-width="1" opacity="1" d="M 1154.5 180 Q 1167 178 1171 184.5 Q 1177 189.5 1175 202.5 L 1169.5 211 Q 1165 215.5 1154.5 214 L 1147 208.5 Q 1142.5 204 1143 194.5 Q 1144.7 186.2 1150.5 182 L 1154.5 180 Z M 1157 183 L 1151 186 L 1147 195 L 1147 200 L 1151 208 L 1158 211 L 1165 210 Q 1171 206 1172 198 L 1170 190 L 1162 183 L 1157 183 Z "></path><path fill="#e8c25d" stroke="#e8c25d" stroke-width="1" opacity="1" d="M 1206 180 L 1224.5 180 L 1229 183.5 Q 1232.2 186.8 1231 194.5 L 1226.5 200 L 1224 201.5 L 1232 213.5 L 1227 214 Q 1225.6 206.7 1219.5 202 L 1210 202 L 1210 214 L 1206 214 L 1206 180 Z M 1212 183 L 1210 185 L 1210 198 L 1224 198 Q 1229 196 1227 188 Q 1224 181 1212 183 Z "></path><path fill="#e8c25d" stroke="#e8c25d" stroke-width="1" opacity="1" d="M 1263 180 L 1280.5 180 L 1286 184.5 Q 1288.3 187.7 1287 194.5 L 1283.5 200 Q 1277.6 203.7 1267 202 L 1267 214 L 1263 214 L 1263 180 Z M 1267 183 L 1267 198 L 1280 198 L 1283 195 L 1284 191 L 1282 186 L 1279 183 L 1267 183 Z "></path></svg>